<svg width="300" height="300" viewBox="0 0 300 300" fill="none" xmlns="http://www.w3.org/2000/svg">
<path fill-rule="evenodd" clip-rule="evenodd" d="M296.838 180.786C298.91 170.849 300 160.552 300 150C300 67.1573 232.843 0 150 0C67.1573 0 0 67.1573 0 150C0 230.355 63.1841 295.952 142.58 299.82L143.546 291.603L143.547 291.59L143.549 291.575L143.554 291.535L143.57 291.419C143.583 291.326 143.6 291.202 143.623 291.048C143.669 290.74 143.737 290.312 143.833 289.771C144.024 288.69 144.325 287.159 144.779 285.246C145.686 281.422 147.207 276.059 149.687 269.703C153.049 261.09 158.185 250.627 165.962 239.702L115.048 250.79L115.021 250.796C109.491 251.979 103.292 251.555 97.7916 248.756C90.1483 244.871 84.0754 238.376 83.1263 229.385C82.2044 220.652 86.3764 211.758 94.0887 203.409C97.3308 199.9 101.512 195.269 106.444 189.807L106.444 189.807C114.035 181.399 123.405 171.022 133.868 159.729C124.004 155.406 121.224 144.989 123.15 143.065C124.505 141.712 126.619 142.278 129.282 142.992C132.336 143.809 136.112 144.82 140.291 143.352L69.087 61.6122C67.4876 59.6038 70.0205 56.9428 72.1102 58.436L159.85 117.586C159.579 112.912 159.459 109.626 159.41 107.393C159.379 105.939 159.378 104.926 159.385 104.264C159.389 103.933 159.395 103.688 159.4 103.519L159.407 103.33C159.484 97.3281 166.71 94.4189 170.98 98.5085L170.987 98.5143L171.205 98.7076C171.396 98.8763 171.673 99.1229 172.025 99.4386C172.73 100.07 173.735 100.978 174.943 102.091C175.418 102.528 175.925 102.997 176.457 103.494L180.972 102.791C192.484 100.998 206.441 101.318 221.709 108.788C232.119 113.881 241.751 122.183 248.998 132.397C254.727 134.15 260.026 137.863 264.465 142.399C268.99 147.023 272.982 152.857 276.004 159.415C280.335 160.663 285.245 163.125 289.464 167.67C292.626 171.075 295.174 175.406 296.838 180.786Z" fill="#C964D6"/>
</svg>
