<svg viewBox="0 0 24 24" xmlns="http://www.w3.org/2000/svg">
<g id="Icon=Bag">
<path id="Vector (Stroke)" fill-rule="evenodd" clip-rule="evenodd" d="M12 3.75C11.2044 3.75 10.4413 4.06607 9.87868 4.62868C9.49652 5.01084 9.22812 5.48548 9.09525 6H14.9047C14.7719 5.48548 14.5035 5.01084 14.1213 4.62868C13.5587 4.06607 12.7956 3.75 12 3.75ZM16.4371 6C16.2824 5.08477 15.847 4.23304 15.182 3.56802C14.3381 2.72411 13.1935 2.25 12 2.25C10.8065 2.25 9.66193 2.72411 8.81802 3.56802C8.153 4.23304 7.71762 5.08477 7.56292 6H3.75C2.92157 6 2.25 6.67157 2.25 7.5V19.5C2.25 20.3284 2.92157 21 3.75 21H20.25C21.0784 21 21.75 20.3284 21.75 19.5V7.5C21.75 6.67157 21.0784 6 20.25 6H16.4371ZM3.75 7.5V19.5H20.25V7.5H3.75Z"/>
</g>
</svg>
