<svg viewBox="0 0 32 32" fill="none" xmlns="http://www.w3.org/2000/svg">
<g id="Icon=behance">
<path id="Vector" d="M19.8125 9.19668H26.0469V10.7092H19.8125V9.19668ZM13.5656 15.1811C14.9438 14.5217 15.6656 13.5186 15.6656 11.9686C15.6656 8.90293 13.3844 8.15918 10.75 8.15918H3.5V23.5467H10.9531C13.7469 23.5467 16.3687 22.2029 16.3687 19.0779C16.3687 17.1467 15.4563 15.7186 13.5656 15.1811ZM6.88125 10.7842H10.0531C11.275 10.7842 12.3719 11.1248 12.3719 12.5436C12.3719 13.8498 11.5188 14.3748 10.3094 14.3748H6.88125V10.7842ZM10.4906 20.9342H6.87813V16.6967H10.5625C12.05 16.6967 12.9906 17.3186 12.9906 18.8936C12.9906 20.4436 11.8688 20.9342 10.4906 20.9342ZM28.4844 18.1373C28.4844 14.8404 26.5562 12.0936 23.0688 12.0936C19.6781 12.0936 17.3719 14.6467 17.3719 17.9936C17.3719 21.4623 19.5562 23.8436 23.0688 23.8436C25.7281 23.8436 27.45 22.6467 28.2781 20.0936H25.5812C25.2875 21.0467 24.0938 21.5467 23.1656 21.5467C21.3719 21.5467 20.4344 20.4967 20.4344 18.7123H28.4625C28.4719 18.5279 28.4844 18.3342 28.4844 18.1373ZM20.4344 16.7811C20.5312 15.3154 21.5094 14.3998 22.9719 14.3998C24.5094 14.3998 25.2781 15.3029 25.4125 16.7811H20.4344Z"/>
</g>
</svg>
