<svg viewBox="0 0 24 24" fill="none" xmlns="http://www.w3.org/2000/svg">
<g id="dribbble">
<path id="Vector" d="M8.74688 3.45923C8.68607 3.42205 8.63713 3.36832 8.60576 3.30432C8.5744 3.24033 8.56192 3.16872 8.5698 3.09789C8.57767 3.02706 8.60556 2.95993 8.6502 2.90438C8.69485 2.84883 8.7544 2.80716 8.82188 2.78423C10.1883 2.31154 11.6429 2.14957 13.0798 2.31013C14.5167 2.47069 15.8998 2.94973 17.1281 3.71236C17.1738 3.73963 17.2132 3.77633 17.2436 3.82C17.274 3.86366 17.2948 3.91331 17.3046 3.96563C17.3143 4.01795 17.3128 4.07175 17.3002 4.12345C17.2876 4.17515 17.2641 4.22357 17.2313 4.26548C16.1412 5.64866 14.8105 6.82375 13.3031 7.73423C12.0832 6.02094 10.5343 4.56769 8.74688 3.45923ZM11.9625 8.43736C10.5899 6.57241 8.78939 5.06448 6.7125 4.04048C6.65118 4.0127 6.58388 4.00072 6.51673 4.00563C6.44959 4.01055 6.38475 4.0322 6.32813 4.06861C4.64769 5.27893 3.39134 6.98797 2.7375 8.95298C2.72203 9.00286 2.71715 9.05541 2.72316 9.10728C2.72918 9.15916 2.74596 9.2092 2.77244 9.25421C2.79892 9.29922 2.8345 9.3382 2.87692 9.36867C2.91933 9.39913 2.96764 9.42039 3.01875 9.43111C3.99843 9.64252 4.99777 9.74937 6 9.74986C8.05944 9.75245 10.0945 9.30448 11.9625 8.43736ZM21.6937 10.9405C21.454 8.76591 20.4898 6.73517 18.9562 5.17486C18.9184 5.13798 18.8733 5.1093 18.8239 5.09063C18.7744 5.07195 18.7217 5.06368 18.6689 5.06632C18.6161 5.06896 18.5644 5.08245 18.5171 5.10597C18.4697 5.12948 18.4277 5.16251 18.3937 5.20298C17.2082 6.7159 15.7563 7.99948 14.1094 8.99048C14.6231 9.88191 15.05 10.8206 15.3844 11.7936C16.7261 11.4308 18.1101 11.2479 19.5 11.2499C20.0952 11.2512 20.6899 11.2857 21.2812 11.353C21.3369 11.3589 21.3931 11.3523 21.4458 11.3336C21.4986 11.315 21.5465 11.2848 21.586 11.2452C21.6256 11.2057 21.6558 11.1578 21.6744 11.1051C21.693 11.0523 21.6997 10.9961 21.6937 10.9405ZM15.7969 13.2374C16.0723 14.4207 16.2107 15.6318 16.2094 16.8467C16.2087 18.0074 16.0798 19.1644 15.825 20.2967C15.8083 20.3664 15.8119 20.4393 15.8353 20.507C15.8588 20.5746 15.9011 20.6342 15.9573 20.6785C16.0135 20.7229 16.0812 20.7503 16.1525 20.7574C16.2237 20.7645 16.2955 20.751 16.3594 20.7186C17.7819 20.0071 19.009 18.9586 19.9339 17.6646C20.8587 16.3705 21.4532 14.8699 21.6656 13.2936C21.6722 13.2443 21.6689 13.1942 21.6559 13.1462C21.6429 13.0982 21.6204 13.0532 21.5899 13.014C21.5594 12.9747 21.5213 12.9419 21.478 12.9175C21.4347 12.8931 21.3869 12.8775 21.3375 12.8717C20.7286 12.7885 20.1146 12.7478 19.5 12.7499C18.2495 12.7483 17.0043 12.9122 15.7969 13.2374ZM13.95 12.2624C13.6529 11.374 13.2633 10.5193 12.7875 9.71236C10.6688 10.727 8.34913 11.2524 6 11.2499C4.90023 11.2493 3.80357 11.133 2.72813 10.903C2.67603 10.8922 2.62223 10.8926 2.57031 10.9042C2.51838 10.9157 2.46951 10.9382 2.42695 10.9702C2.38439 11.0021 2.3491 11.0427 2.32344 11.0893C2.29779 11.1359 2.28234 11.1874 2.27813 11.2405C2.25938 11.4905 2.25 11.7436 2.25 11.9999C2.24952 13.3348 2.52397 14.6555 3.05623 15.8797C3.5885 17.1039 4.36718 18.2054 5.34375 19.1155C5.38399 19.1541 5.43255 19.1831 5.4857 19.2C5.53884 19.217 5.59517 19.2216 5.65037 19.2135C5.70557 19.2053 5.75817 19.1847 5.80415 19.1531C5.85013 19.1214 5.88826 19.0797 5.91563 19.0311C7.74485 15.9258 10.5792 13.5379 13.95 12.2624ZM7.09688 19.9874C7.07186 20.0303 7.05565 20.0779 7.04918 20.1272C7.04272 20.1765 7.04613 20.2266 7.05922 20.2746C7.0723 20.3226 7.09481 20.3675 7.12541 20.4067C7.15602 20.4459 7.19412 20.4786 7.2375 20.503C8.69045 21.3235 10.3314 21.7531 12 21.7499C12.569 21.7524 13.1371 21.7021 13.6969 21.5999C13.7617 21.5891 13.8222 21.5606 13.8719 21.5176C13.9215 21.4746 13.9583 21.4187 13.9781 21.3561C14.4644 19.9025 14.7114 18.3795 14.7094 16.8467C14.7088 15.7903 14.5925 14.7372 14.3625 13.7061C11.2916 14.9041 8.7262 17.1219 7.09688 19.9874Z"/>
</g>
</svg>
