<svg viewBox="0 0 32 32" fill="none" xmlns="http://www.w3.org/2000/svg">
<g id="Icon=Heart hands">
<g id="Vector 3156 (Stroke)" filter="url(#filter0_i_1351_3529)">
<path fill-rule="evenodd" clip-rule="evenodd" d="M10.5368 14.5189C11.2859 14.0592 12.253 14.1374 12.8855 14.4537C13.9228 14.9723 15.1842 14.5518 15.7029 13.5145C16.2216 12.4771 15.8011 11.2157 14.7637 10.6971C13.1434 9.88692 10.5948 9.55558 8.34012 10.9391C5.25287 12.8335 4.98321 15.8333 4.98321 17.7978C4.98321 18.9576 5.92341 19.8978 7.08321 19.8978C8.24301 19.8978 9.18321 18.9576 9.18321 17.7978C9.18321 16.1612 9.42357 15.202 10.5368 14.5189Z" fill="url(#paint0_radial_1351_3529)"/>
<path fill-rule="evenodd" clip-rule="evenodd" d="M10.5368 14.5189C11.2859 14.0592 12.253 14.1374 12.8855 14.4537C13.9228 14.9723 15.1842 14.5518 15.7029 13.5145C16.2216 12.4771 15.8011 11.2157 14.7637 10.6971C13.1434 9.88692 10.5948 9.55558 8.34012 10.9391C5.25287 12.8335 4.98321 15.8333 4.98321 17.7978C4.98321 18.9576 5.92341 19.8978 7.08321 19.8978C8.24301 19.8978 9.18321 18.9576 9.18321 17.7978C9.18321 16.1612 9.42357 15.202 10.5368 14.5189Z" fill="url(#paint1_radial_1351_3529)"/>
</g>
<g id="Union" filter="url(#filter1_iii_1351_3529)">
<path d="M14.1512 15.9981C14.1512 15.9981 14.1466 15.9927 14.1365 15.9826C14.1262 15.972 14.1115 15.9578 14.0922 15.9405C14.0531 15.9056 14.0004 15.863 13.9345 15.817C13.8012 15.7239 13.634 15.6308 13.4446 15.5588C13.0746 15.4183 12.6557 15.3684 12.1961 15.5072C11.2209 15.8017 10.6606 16.5806 10.3008 17.7149C10.1405 18.6116 10.1559 20.337 10.9768 21.1484C11.2178 21.4171 11.7414 21.7576 12.4125 22.1942C13.8238 23.1122 15.8875 24.4545 17.348 26.4453C18.3923 27.7765 17.443 29.186 16.9249 29.4687C16.2058 29.8611 15.3973 30.0093 14.5584 29.3437C13.7195 28.6781 12.3774 27.7205 10.9222 27.9765C9.467 28.2325 8.89174 28.328 8.0426 28.328H3.69647C2.70236 28.328 1.89661 27.5222 1.89661 26.528V22.0156C1.89661 20.0584 3.12747 17.5755 5.09337 16.8933C5.73116 16.672 6.3358 16.2592 6.59362 15.6353C7.27483 13.9867 8.53592 12.2253 10.9818 11.4866C13.9648 10.5857 16.4191 12.178 17.3553 13.2827C18.1051 14.1675 17.9957 15.4926 17.1109 16.2425C16.2261 16.9923 14.901 16.8829 14.1512 15.9981Z" fill="#FFC34C"/>
<path d="M14.1512 15.9981C14.1512 15.9981 14.1466 15.9927 14.1365 15.9826C14.1262 15.972 14.1115 15.9578 14.0922 15.9405C14.0531 15.9056 14.0004 15.863 13.9345 15.817C13.8012 15.7239 13.634 15.6308 13.4446 15.5588C13.0746 15.4183 12.6557 15.3684 12.1961 15.5072C11.2209 15.8017 10.6606 16.5806 10.3008 17.7149C10.1405 18.6116 10.1559 20.337 10.9768 21.1484C11.2178 21.4171 11.7414 21.7576 12.4125 22.1942C13.8238 23.1122 15.8875 24.4545 17.348 26.4453C18.3923 27.7765 17.443 29.186 16.9249 29.4687C16.2058 29.8611 15.3973 30.0093 14.5584 29.3437C13.7195 28.6781 12.3774 27.7205 10.9222 27.9765C9.467 28.2325 8.89174 28.328 8.0426 28.328H3.69647C2.70236 28.328 1.89661 27.5222 1.89661 26.528V22.0156C1.89661 20.0584 3.12747 17.5755 5.09337 16.8933C5.73116 16.672 6.3358 16.2592 6.59362 15.6353C7.27483 13.9867 8.53592 12.2253 10.9818 11.4866C13.9648 10.5857 16.4191 12.178 17.3553 13.2827C18.1051 14.1675 17.9957 15.4926 17.1109 16.2425C16.2261 16.9923 14.901 16.8829 14.1512 15.9981Z" fill="url(#paint2_radial_1351_3529)"/>
<path d="M14.1512 15.9981C14.1512 15.9981 14.1466 15.9927 14.1365 15.9826C14.1262 15.972 14.1115 15.9578 14.0922 15.9405C14.0531 15.9056 14.0004 15.863 13.9345 15.817C13.8012 15.7239 13.634 15.6308 13.4446 15.5588C13.0746 15.4183 12.6557 15.3684 12.1961 15.5072C11.2209 15.8017 10.6606 16.5806 10.3008 17.7149C10.1405 18.6116 10.1559 20.337 10.9768 21.1484C11.2178 21.4171 11.7414 21.7576 12.4125 22.1942C13.8238 23.1122 15.8875 24.4545 17.348 26.4453C18.3923 27.7765 17.443 29.186 16.9249 29.4687C16.2058 29.8611 15.3973 30.0093 14.5584 29.3437C13.7195 28.6781 12.3774 27.7205 10.9222 27.9765C9.467 28.2325 8.89174 28.328 8.0426 28.328H3.69647C2.70236 28.328 1.89661 27.5222 1.89661 26.528V22.0156C1.89661 20.0584 3.12747 17.5755 5.09337 16.8933C5.73116 16.672 6.3358 16.2592 6.59362 15.6353C7.27483 13.9867 8.53592 12.2253 10.9818 11.4866C13.9648 10.5857 16.4191 12.178 17.3553 13.2827C18.1051 14.1675 17.9957 15.4926 17.1109 16.2425C16.2261 16.9923 14.901 16.8829 14.1512 15.9981Z" fill="url(#paint3_radial_1351_3529)"/>
<path d="M14.1512 15.9981C14.1512 15.9981 14.1466 15.9927 14.1365 15.9826C14.1262 15.972 14.1115 15.9578 14.0922 15.9405C14.0531 15.9056 14.0004 15.863 13.9345 15.817C13.8012 15.7239 13.634 15.6308 13.4446 15.5588C13.0746 15.4183 12.6557 15.3684 12.1961 15.5072C11.2209 15.8017 10.6606 16.5806 10.3008 17.7149C10.1405 18.6116 10.1559 20.337 10.9768 21.1484C11.2178 21.4171 11.7414 21.7576 12.4125 22.1942C13.8238 23.1122 15.8875 24.4545 17.348 26.4453C18.3923 27.7765 17.443 29.186 16.9249 29.4687C16.2058 29.8611 15.3973 30.0093 14.5584 29.3437C13.7195 28.6781 12.3774 27.7205 10.9222 27.9765C9.467 28.2325 8.89174 28.328 8.0426 28.328H3.69647C2.70236 28.328 1.89661 27.5222 1.89661 26.528V22.0156C1.89661 20.0584 3.12747 17.5755 5.09337 16.8933C5.73116 16.672 6.3358 16.2592 6.59362 15.6353C7.27483 13.9867 8.53592 12.2253 10.9818 11.4866C13.9648 10.5857 16.4191 12.178 17.3553 13.2827C18.1051 14.1675 17.9957 15.4926 17.1109 16.2425C16.2261 16.9923 14.901 16.8829 14.1512 15.9981Z" fill="url(#paint4_radial_1351_3529)"/>
</g>
<g id="Vector 3151 (Stroke)">
<path fill-rule="evenodd" clip-rule="evenodd" d="M21.1412 14.5189C20.3921 14.0592 19.425 14.1374 18.7925 14.4537C17.7552 14.9723 16.4938 14.5518 15.9751 13.5145C15.4564 12.4771 15.8769 11.2157 16.9143 10.6971C18.5346 9.88692 21.0832 9.55558 23.3379 10.9391C26.4251 12.8335 26.6948 15.8333 26.6948 17.7978C26.6948 18.9576 25.7546 19.8978 24.5948 19.8978C23.435 19.8978 22.4948 18.9576 22.4948 17.7978C22.4948 16.1612 22.2544 15.202 21.1412 14.5189Z" fill="#E8B12D"/>
<path fill-rule="evenodd" clip-rule="evenodd" d="M21.1412 14.5189C20.3921 14.0592 19.425 14.1374 18.7925 14.4537C17.7552 14.9723 16.4938 14.5518 15.9751 13.5145C15.4564 12.4771 15.8769 11.2157 16.9143 10.6971C18.5346 9.88692 21.0832 9.55558 23.3379 10.9391C26.4251 12.8335 26.6948 15.8333 26.6948 17.7978C26.6948 18.9576 25.7546 19.8978 24.5948 19.8978C23.435 19.8978 22.4948 18.9576 22.4948 17.7978C22.4948 16.1612 22.2544 15.202 21.1412 14.5189Z" fill="url(#paint5_radial_1351_3529)"/>
<path fill-rule="evenodd" clip-rule="evenodd" d="M21.1412 14.5189C20.3921 14.0592 19.425 14.1374 18.7925 14.4537C17.7552 14.9723 16.4938 14.5518 15.9751 13.5145C15.4564 12.4771 15.8769 11.2157 16.9143 10.6971C18.5346 9.88692 21.0832 9.55558 23.3379 10.9391C26.4251 12.8335 26.6948 15.8333 26.6948 17.7978C26.6948 18.9576 25.7546 19.8978 24.5948 19.8978C23.435 19.8978 22.4948 18.9576 22.4948 17.7978C22.4948 16.1612 22.2544 15.202 21.1412 14.5189Z" fill="url(#paint6_radial_1351_3529)"/>
</g>
<g id="Union_2" filter="url(#filter2_iii_1351_3529)">
<path d="M17.5268 15.9981C17.5268 15.9981 17.5314 15.9927 17.5414 15.9826C17.5518 15.972 17.5665 15.9578 17.5858 15.9405C17.6249 15.9056 17.6776 15.863 17.7434 15.817C17.8768 15.7239 18.044 15.6308 18.2334 15.5588C18.6033 15.4183 19.0223 15.3684 19.4819 15.5072C20.4571 15.8017 21.0174 16.5806 21.3772 17.7149C21.5375 18.6116 21.5221 20.337 20.7012 21.1484C20.4602 21.4171 19.9366 21.7576 19.2655 22.1942C17.8542 23.1122 15.7904 24.4545 14.3299 26.4453C13.2857 27.7765 14.235 29.186 14.7531 29.4687C15.4721 29.8611 16.2807 30.0093 17.1196 29.3437C17.9584 28.6781 19.3006 27.7205 20.7558 27.9765C22.211 28.2325 22.7862 28.328 23.6354 28.328H27.9815C28.9756 28.328 29.7814 27.5222 29.7814 26.528V22.0156C29.7814 20.0584 28.5505 17.5755 26.5846 16.8933C25.9468 16.672 25.3422 16.2592 25.0844 15.6353C24.4031 13.9867 23.1421 12.2253 20.6962 11.4866C17.7132 10.5857 15.2589 12.178 14.3227 13.2827C13.5728 14.1675 13.6822 15.4926 14.567 16.2425C15.4518 16.9923 16.777 16.8829 17.5268 15.9981Z" fill="#FFC34C"/>
</g>
<g id="Vector 3157" filter="url(#filter3_f_1351_3529)">
<path d="M19.0312 12.4374C20.4062 12.3958 23.3062 13.2812 24.2812 17.1562" stroke="url(#paint7_linear_1351_3529)" stroke-width="2" stroke-linecap="round"/>
</g>
<g id="Vector 3158" filter="url(#filter4_f_1351_3529)">
<path d="M25.7812 18.125C26.5833 18.5 28.1875 19.7625 28.1875 21.8125C28.1875 23.8625 28.1875 25.2083 28.1875 26.0312" stroke="url(#paint8_radial_1351_3529)" stroke-width="2" stroke-linecap="round"/>
</g>
<g id="Vector 3159" filter="url(#filter5_f_1351_3529)">
<path d="M15.4688 27.7812C15.9896 26.9271 17.9625 25.1125 19.5625 23.9375" stroke="url(#paint9_linear_1351_3529)" stroke-width="2" stroke-linecap="round"/>
</g>
<g id="Vector 3160" filter="url(#filter6_f_1351_3529)">
<path d="M8.44967 19.0312C8.3455 19.8333 8.54342 21.6375 10.1684 22.4375C11.8439 23.5 13.283 24.5625 13.8247 25.125" stroke="url(#paint10_linear_1351_3529)" stroke-width="2" stroke-linecap="round"/>
</g>
</g>
<defs>
<filter id="filter0_i_1351_3529" x="4.98315" y="9.99512" width="11.1919" height="9.90283" filterUnits="userSpaceOnUse" color-interpolation-filters="sRGB">
<feFlood flood-opacity="0" result="BackgroundImageFix"/>
<feBlend mode="normal" in="SourceGraphic" in2="BackgroundImageFix" result="shape"/>
<feColorMatrix in="SourceAlpha" type="matrix" values="0 0 0 0 0 0 0 0 0 0 0 0 0 0 0 0 0 0 127 0" result="hardAlpha"/>
<feOffset dx="0.25"/>
<feGaussianBlur stdDeviation="0.25"/>
<feComposite in2="hardAlpha" operator="arithmetic" k2="-1" k3="1"/>
<feColorMatrix type="matrix" values="0 0 0 0 0.882353 0 0 0 0 0.662745 0 0 0 0 0.345098 0 0 0 1 0"/>
<feBlend mode="normal" in2="shape" result="effect1_innerShadow_1351_3529"/>
</filter>
<filter id="filter1_iii_1351_3529" x="1.89648" y="10.2212" width="16.4568" height="19.582" filterUnits="userSpaceOnUse" color-interpolation-filters="sRGB">
<feFlood flood-opacity="0" result="BackgroundImageFix"/>
<feBlend mode="normal" in="SourceGraphic" in2="BackgroundImageFix" result="shape"/>
<feColorMatrix in="SourceAlpha" type="matrix" values="0 0 0 0 0 0 0 0 0 0 0 0 0 0 0 0 0 0 127 0" result="hardAlpha"/>
<feOffset dy="-1"/>
<feGaussianBlur stdDeviation="1"/>
<feComposite in2="hardAlpha" operator="arithmetic" k2="-1" k3="1"/>
<feColorMatrix type="matrix" values="0 0 0 0 0.980392 0 0 0 0 0.639216 0 0 0 0 0.34902 0 0 0 1 0"/>
<feBlend mode="normal" in2="shape" result="effect1_innerShadow_1351_3529"/>
<feColorMatrix in="SourceAlpha" type="matrix" values="0 0 0 0 0 0 0 0 0 0 0 0 0 0 0 0 0 0 127 0" result="hardAlpha"/>
<feOffset dx="0.5"/>
<feGaussianBlur stdDeviation="0.75"/>
<feComposite in2="hardAlpha" operator="arithmetic" k2="-1" k3="1"/>
<feColorMatrix type="matrix" values="0 0 0 0 0.878431 0 0 0 0 0.619608 0 0 0 0 0.2 0 0 0 1 0"/>
<feBlend mode="normal" in2="effect1_innerShadow_1351_3529" result="effect2_innerShadow_1351_3529"/>
<feColorMatrix in="SourceAlpha" type="matrix" values="0 0 0 0 0 0 0 0 0 0 0 0 0 0 0 0 0 0 127 0" result="hardAlpha"/>
<feOffset dy="-0.25"/>
<feGaussianBlur stdDeviation="0.375"/>
<feComposite in2="hardAlpha" operator="arithmetic" k2="-1" k3="1"/>
<feColorMatrix type="matrix" values="0 0 0 0 0.976471 0 0 0 0 0.521569 0 0 0 0 0.705882 0 0 0 1 0"/>
<feBlend mode="normal" in2="effect2_innerShadow_1351_3529" result="effect3_innerShadow_1351_3529"/>
</filter>
<filter id="filter2_iii_1351_3529" x="13.8247" y="10.2212" width="16.4565" height="19.582" filterUnits="userSpaceOnUse" color-interpolation-filters="sRGB">
<feFlood flood-opacity="0" result="BackgroundImageFix"/>
<feBlend mode="normal" in="SourceGraphic" in2="BackgroundImageFix" result="shape"/>
<feColorMatrix in="SourceAlpha" type="matrix" values="0 0 0 0 0 0 0 0 0 0 0 0 0 0 0 0 0 0 127 0" result="hardAlpha"/>
<feOffset dy="-1"/>
<feGaussianBlur stdDeviation="1"/>
<feComposite in2="hardAlpha" operator="arithmetic" k2="-1" k3="1"/>
<feColorMatrix type="matrix" values="0 0 0 0 0.980392 0 0 0 0 0.639216 0 0 0 0 0.34902 0 0 0 1 0"/>
<feBlend mode="normal" in2="shape" result="effect1_innerShadow_1351_3529"/>
<feColorMatrix in="SourceAlpha" type="matrix" values="0 0 0 0 0 0 0 0 0 0 0 0 0 0 0 0 0 0 127 0" result="hardAlpha"/>
<feOffset dx="0.5"/>
<feGaussianBlur stdDeviation="0.75"/>
<feComposite in2="hardAlpha" operator="arithmetic" k2="-1" k3="1"/>
<feColorMatrix type="matrix" values="0 0 0 0 0.878431 0 0 0 0 0.619608 0 0 0 0 0.2 0 0 0 1 0"/>
<feBlend mode="normal" in2="effect1_innerShadow_1351_3529" result="effect2_innerShadow_1351_3529"/>
<feColorMatrix in="SourceAlpha" type="matrix" values="0 0 0 0 0 0 0 0 0 0 0 0 0 0 0 0 0 0 127 0" result="hardAlpha"/>
<feOffset dy="-0.25"/>
<feGaussianBlur stdDeviation="0.375"/>
<feComposite in2="hardAlpha" operator="arithmetic" k2="-1" k3="1"/>
<feColorMatrix type="matrix" values="0 0 0 0 0.976471 0 0 0 0 0.521569 0 0 0 0 0.705882 0 0 0 1 0"/>
<feBlend mode="normal" in2="effect2_innerShadow_1351_3529" result="effect3_innerShadow_1351_3529"/>
</filter>
<filter id="filter3_f_1351_3529" x="17.0312" y="10.436" width="9.25024" height="8.72021" filterUnits="userSpaceOnUse" color-interpolation-filters="sRGB">
<feFlood flood-opacity="0" result="BackgroundImageFix"/>
<feBlend mode="normal" in="SourceGraphic" in2="BackgroundImageFix" result="shape"/>
<feGaussianBlur stdDeviation="0.5" result="effect1_foregroundBlur_1351_3529"/>
</filter>
<filter id="filter4_f_1351_3529" x="23.781" y="16.125" width="6.40649" height="11.9062" filterUnits="userSpaceOnUse" color-interpolation-filters="sRGB">
<feFlood flood-opacity="0" result="BackgroundImageFix"/>
<feBlend mode="normal" in="SourceGraphic" in2="BackgroundImageFix" result="shape"/>
<feGaussianBlur stdDeviation="0.5" result="effect1_foregroundBlur_1351_3529"/>
</filter>
<filter id="filter5_f_1351_3529" x="13.4685" y="21.9375" width="8.09399" height="7.84375" filterUnits="userSpaceOnUse" color-interpolation-filters="sRGB">
<feFlood flood-opacity="0" result="BackgroundImageFix"/>
<feBlend mode="normal" in="SourceGraphic" in2="BackgroundImageFix" result="shape"/>
<feGaussianBlur stdDeviation="0.5" result="effect1_foregroundBlur_1351_3529"/>
</filter>
<filter id="filter6_f_1351_3529" x="6.42676" y="17.0312" width="9.39795" height="10.0938" filterUnits="userSpaceOnUse" color-interpolation-filters="sRGB">
<feFlood flood-opacity="0" result="BackgroundImageFix"/>
<feBlend mode="normal" in="SourceGraphic" in2="BackgroundImageFix" result="shape"/>
<feGaussianBlur stdDeviation="0.5" result="effect1_foregroundBlur_1351_3529"/>
</filter>
<radialGradient id="paint0_radial_1351_3529" cx="0" cy="0" r="1" gradientUnits="userSpaceOnUse" gradientTransform="translate(14.9687 11.4063) rotate(142.891) scale(10.4626 11.5605)">
<stop stop-color="#FCD038"/>
<stop offset="1" stop-color="#FDB046"/>
</radialGradient>
<radialGradient id="paint1_radial_1351_3529" cx="0" cy="0" r="1" gradientUnits="userSpaceOnUse" gradientTransform="translate(9.5625 15.125) rotate(123.476) scale(4.64565 3.41798)">
<stop offset="0.497466" stop-color="#EFA128"/>
<stop offset="1" stop-color="#EFA128" stop-opacity="0"/>
</radialGradient>
<radialGradient id="paint2_radial_1351_3529" cx="0" cy="0" r="1" gradientUnits="userSpaceOnUse" gradientTransform="translate(14.75 29.803) rotate(-161.777) scale(7.76442 5.60844)">
<stop offset="0.182697" stop-color="#FD985B"/>
<stop offset="1" stop-color="#FD985B" stop-opacity="0"/>
</radialGradient>
<radialGradient id="paint3_radial_1351_3529" cx="0" cy="0" r="1" gradientUnits="userSpaceOnUse" gradientTransform="translate(16.5313 25.2187) rotate(-128.919) scale(6.46664 2.55443)">
<stop stop-color="#D49637"/>
<stop offset="1" stop-color="#D49637" stop-opacity="0"/>
</radialGradient>
<radialGradient id="paint4_radial_1351_3529" cx="0" cy="0" r="1" gradientUnits="userSpaceOnUse" gradientTransform="translate(14.625 15.8125) rotate(132.013) scale(5.08924 3.88381)">
<stop offset="0.365468" stop-color="#ED8C50"/>
<stop offset="1" stop-color="#ED8C50" stop-opacity="0"/>
</radialGradient>
<radialGradient id="paint5_radial_1351_3529" cx="0" cy="0" r="1" gradientUnits="userSpaceOnUse" gradientTransform="translate(26.9376 16.6563) rotate(-136.324) scale(14.3448 4.44683)">
<stop offset="0.143087" stop-color="#FFEB63"/>
<stop offset="1" stop-color="#FFEB63" stop-opacity="0"/>
</radialGradient>
<radialGradient id="paint6_radial_1351_3529" cx="0" cy="0" r="1" gradientUnits="userSpaceOnUse" gradientTransform="translate(22.7814 14.0938) rotate(51.8428) scale(4.45112 1.98074)">
<stop offset="0.34582" stop-color="#FEC731"/>
<stop offset="1" stop-color="#FEC731" stop-opacity="0"/>
</radialGradient>
<linearGradient id="paint7_linear_1351_3529" x1="24.2812" y1="17.1562" x2="15.375" y2="11.2187" gradientUnits="userSpaceOnUse">
<stop stop-color="#FFE660"/>
<stop offset="1" stop-color="#FFE660" stop-opacity="0"/>
</linearGradient>
<radialGradient id="paint8_radial_1351_3529" cx="0" cy="0" r="1" gradientUnits="userSpaceOnUse" gradientTransform="translate(30.8438 19.4375) rotate(144.039) scale(7.87599 5.78747)">
<stop offset="0.324876" stop-color="#FFE660"/>
<stop offset="1" stop-color="#FFE660" stop-opacity="0"/>
</radialGradient>
<linearGradient id="paint9_linear_1351_3529" x1="15.9063" y1="28.0938" x2="19.4986" y2="22.9806" gradientUnits="userSpaceOnUse">
<stop stop-color="#FFC452"/>
<stop offset="1" stop-color="#FFC452" stop-opacity="0"/>
</linearGradient>
<linearGradient id="paint10_linear_1351_3529" x1="11.6876" y1="19.6875" x2="9.81727" y2="24.4277" gradientUnits="userSpaceOnUse">
<stop stop-color="#FFD454"/>
<stop offset="1" stop-color="#FFE660" stop-opacity="0"/>
</linearGradient>
</defs>
</svg>
