<svg viewBox="0 0 32 32" fill="none" xmlns="http://www.w3.org/2000/svg">
<g id="Icon=Love-you gesture">
<g id="Hand" filter="url(#filter0_i_1351_3527)">
<path d="M28.9947 13.6064C28.2959 12.798 26.9322 12.3174 25.6978 12.958C24.4634 13.5986 23.4895 14.3342 23.1197 14.6807C23.1197 14.6807 22.4713 15.1246 22.4713 14.2965C22.4713 13.4684 22.4713 12.5428 22.4713 12.5428V5.03613C22.4713 3.36426 21.3463 2.06738 19.8463 2.06738C18.44 2.06738 17.2213 3.19238 17.2213 5.03613L17.1828 12.5428H8.90875V8.56738C8.90875 6.91113 7.75237 5.68717 6.31487 5.68717C4.87737 5.68717 3.70137 7.09508 3.70137 8.45446C3.70137 9.81383 3.68408 19.6729 3.68408 19.6729C3.68408 26.7759 8.0118 29.9328 13.3372 29.9328C16.0459 29.9328 18.7468 28.7123 20.5259 26.8408C22.7838 24.4658 22.0884 23.5283 24.4869 20.9736C25.6978 19.5908 27.6259 18.2668 28.6822 17.3955C29.7385 16.5242 29.94 14.7002 28.9947 13.6064Z" fill="#FFBF40"/>
<path d="M28.9947 13.6064C28.2959 12.798 26.9322 12.3174 25.6978 12.958C24.4634 13.5986 23.4895 14.3342 23.1197 14.6807C23.1197 14.6807 22.4713 15.1246 22.4713 14.2965C22.4713 13.4684 22.4713 12.5428 22.4713 12.5428V5.03613C22.4713 3.36426 21.3463 2.06738 19.8463 2.06738C18.44 2.06738 17.2213 3.19238 17.2213 5.03613L17.1828 12.5428H8.90875V8.56738C8.90875 6.91113 7.75237 5.68717 6.31487 5.68717C4.87737 5.68717 3.70137 7.09508 3.70137 8.45446C3.70137 9.81383 3.68408 19.6729 3.68408 19.6729C3.68408 26.7759 8.0118 29.9328 13.3372 29.9328C16.0459 29.9328 18.7468 28.7123 20.5259 26.8408C22.7838 24.4658 22.0884 23.5283 24.4869 20.9736C25.6978 19.5908 27.6259 18.2668 28.6822 17.3955C29.7385 16.5242 29.94 14.7002 28.9947 13.6064Z" fill="url(#paint0_radial_1351_3527)"/>
<path d="M28.9947 13.6064C28.2959 12.798 26.9322 12.3174 25.6978 12.958C24.4634 13.5986 23.4895 14.3342 23.1197 14.6807C23.1197 14.6807 22.4713 15.1246 22.4713 14.2965C22.4713 13.4684 22.4713 12.5428 22.4713 12.5428V5.03613C22.4713 3.36426 21.3463 2.06738 19.8463 2.06738C18.44 2.06738 17.2213 3.19238 17.2213 5.03613L17.1828 12.5428H8.90875V8.56738C8.90875 6.91113 7.75237 5.68717 6.31487 5.68717C4.87737 5.68717 3.70137 7.09508 3.70137 8.45446C3.70137 9.81383 3.68408 19.6729 3.68408 19.6729C3.68408 26.7759 8.0118 29.9328 13.3372 29.9328C16.0459 29.9328 18.7468 28.7123 20.5259 26.8408C22.7838 24.4658 22.0884 23.5283 24.4869 20.9736C25.6978 19.5908 27.6259 18.2668 28.6822 17.3955C29.7385 16.5242 29.94 14.7002 28.9947 13.6064Z" fill="url(#paint1_radial_1351_3527)"/>
</g>
<g id="Middle" filter="url(#filter1_f_1351_3527)">
<rect x="12.3042" y="11.5234" width="3.69589" height="5.96615" rx="1.84795" fill="#B44B10"/>
</g>
<g id="Middle_2" filter="url(#filter2_f_1351_3527)">
<rect x="7.69556" y="10.2344" width="4.40862" height="7.25552" rx="2.20431" fill="#B44B10"/>
</g>
<g id="Thumb shadow">
<path d="M25.6979 12.9577C26.9323 12.3171 28.296 12.7977 28.9948 13.6061C29.9401 14.6999 29.7386 16.5239 28.6823 17.3952C28.4038 17.6249 28.0647 17.8861 27.6942 18.1715C26.6592 18.9687 25.3787 19.9551 24.4869 20.9733C23.6936 21.8184 23.2387 22.4864 22.9036 23.0881C21.4116 19.3982 21.8669 16.3098 22.5371 14.6511C22.702 14.9664 23.1198 14.6804 23.1198 14.6804C23.4896 14.3339 24.4635 13.5983 25.6979 12.9577Z" fill="#F4B616"/>
<path d="M25.6979 12.9577C26.9323 12.3171 28.296 12.7977 28.9948 13.6061C29.9401 14.6999 29.7386 16.5239 28.6823 17.3952C28.4038 17.6249 28.0647 17.8861 27.6942 18.1715C26.6592 18.9687 25.3787 19.9551 24.4869 20.9733C23.6936 21.8184 23.2387 22.4864 22.9036 23.0881C21.4116 19.3982 21.8669 16.3098 22.5371 14.6511C22.702 14.9664 23.1198 14.6804 23.1198 14.6804C23.4896 14.3339 24.4635 13.5983 25.6979 12.9577Z" fill="url(#paint2_radial_1351_3527)"/>
<path d="M25.6979 12.9577C26.9323 12.3171 28.296 12.7977 28.9948 13.6061C29.9401 14.6999 29.7386 16.5239 28.6823 17.3952C28.4038 17.6249 28.0647 17.8861 27.6942 18.1715C26.6592 18.9687 25.3787 19.9551 24.4869 20.9733C23.6936 21.8184 23.2387 22.4864 22.9036 23.0881C21.4116 19.3982 21.8669 16.3098 22.5371 14.6511C22.702 14.9664 23.1198 14.6804 23.1198 14.6804C23.4896 14.3339 24.4635 13.5983 25.6979 12.9577Z" fill="url(#paint3_radial_1351_3527)"/>
<path d="M25.6979 12.9577C26.9323 12.3171 28.296 12.7977 28.9948 13.6061C29.9401 14.6999 29.7386 16.5239 28.6823 17.3952C28.4038 17.6249 28.0647 17.8861 27.6942 18.1715C26.6592 18.9687 25.3787 19.9551 24.4869 20.9733C23.6936 21.8184 23.2387 22.4864 22.9036 23.0881C21.4116 19.3982 21.8669 16.3098 22.5371 14.6511C22.702 14.9664 23.1198 14.6804 23.1198 14.6804C23.4896 14.3339 24.4635 13.5983 25.6979 12.9577Z" fill="url(#paint4_radial_1351_3527)"/>
<path d="M25.6979 12.9577C26.9323 12.3171 28.296 12.7977 28.9948 13.6061C29.9401 14.6999 29.7386 16.5239 28.6823 17.3952C28.4038 17.6249 28.0647 17.8861 27.6942 18.1715C26.6592 18.9687 25.3787 19.9551 24.4869 20.9733C23.6936 21.8184 23.2387 22.4864 22.9036 23.0881C21.4116 19.3982 21.8669 16.3098 22.5371 14.6511C22.702 14.9664 23.1198 14.6804 23.1198 14.6804C23.4896 14.3339 24.4635 13.5983 25.6979 12.9577Z" fill="url(#paint5_radial_1351_3527)"/>
</g>
<g id="Index shadow">
<path d="M22.476 12.54H17.1875L17.226 5.03613C17.226 3.19238 18.4447 2.06738 19.851 2.06738C21.351 2.06738 22.476 3.36426 22.476 5.03613V12.54Z" fill="url(#paint6_linear_1351_3527)"/>
<path d="M22.476 12.54H17.1875L17.226 5.03613C17.226 3.19238 18.4447 2.06738 19.851 2.06738C21.351 2.06738 22.476 3.36426 22.476 5.03613V12.54Z" fill="url(#paint7_linear_1351_3527)"/>
<path d="M22.476 12.54H17.1875L17.226 5.03613C17.226 3.19238 18.4447 2.06738 19.851 2.06738C21.351 2.06738 22.476 3.36426 22.476 5.03613V12.54Z" fill="url(#paint8_radial_1351_3527)"/>
<path d="M22.476 12.54H17.1875L17.226 5.03613C17.226 3.19238 18.4447 2.06738 19.851 2.06738C21.351 2.06738 22.476 3.36426 22.476 5.03613V12.54Z" fill="url(#paint9_radial_1351_3527)"/>
</g>
<g id="Ring" filter="url(#filter3_i_1351_3527)">
<rect x="8.1355" y="8.91895" width="5.17188" height="8.17188" rx="2.53906" fill="url(#paint10_linear_1351_3527)"/>
<rect x="8.1355" y="8.91895" width="5.17188" height="8.17188" rx="2.53906" fill="url(#paint11_linear_1351_3527)"/>
<rect x="8.1355" y="8.91895" width="5.17188" height="8.17188" rx="2.53906" fill="url(#paint12_radial_1351_3527)"/>
</g>
<g id="Middle_3" filter="url(#filter4_i_1351_3527)">
<rect x="12.698" y="7.35645" width="5.07812" height="9.73438" rx="2.53906" fill="url(#paint13_linear_1351_3527)"/>
</g>
<g id="Rectangle 75" filter="url(#filter5_f_1351_3527)">
<rect x="19.8318" y="3.69678" width="1.6362" height="10.4442" rx="0.8181" fill="url(#paint14_linear_1351_3527)"/>
</g>
<g id="Rectangle 76" filter="url(#filter6_f_1351_3527)">
<rect x="15.519" y="9.0918" width="1.46809" height="6.26392" rx="0.734047" fill="#FFE948"/>
</g>
</g>
<defs>
<filter id="filter0_i_1351_3527" x="3.68408" y="1.41738" width="26.5672" height="28.5152" filterUnits="userSpaceOnUse" color-interpolation-filters="sRGB">
<feFlood flood-opacity="0" result="BackgroundImageFix"/>
<feBlend mode="normal" in="SourceGraphic" in2="BackgroundImageFix" result="shape"/>
<feColorMatrix in="SourceAlpha" type="matrix" values="0 0 0 0 0 0 0 0 0 0 0 0 0 0 0 0 0 0 127 0" result="hardAlpha"/>
<feOffset dx="0.65" dy="-0.65"/>
<feGaussianBlur stdDeviation="1"/>
<feComposite in2="hardAlpha" operator="arithmetic" k2="-1" k3="1"/>
<feColorMatrix type="matrix" values="0 0 0 0 0.94902 0 0 0 0 0.486275 0 0 0 0 0.380392 0 0 0 1 0"/>
<feBlend mode="normal" in2="shape" result="effect1_innerShadow_1351_3527"/>
</filter>
<filter id="filter1_f_1351_3527" x="10.8042" y="10.0234" width="6.6958" height="8.96631" filterUnits="userSpaceOnUse" color-interpolation-filters="sRGB">
<feFlood flood-opacity="0" result="BackgroundImageFix"/>
<feBlend mode="normal" in="SourceGraphic" in2="BackgroundImageFix" result="shape"/>
<feGaussianBlur stdDeviation="0.75" result="effect1_foregroundBlur_1351_3527"/>
</filter>
<filter id="filter2_f_1351_3527" x="5.69556" y="8.23438" width="8.40869" height="11.2554" filterUnits="userSpaceOnUse" color-interpolation-filters="sRGB">
<feFlood flood-opacity="0" result="BackgroundImageFix"/>
<feBlend mode="normal" in="SourceGraphic" in2="BackgroundImageFix" result="shape"/>
<feGaussianBlur stdDeviation="1" result="effect1_foregroundBlur_1351_3527"/>
</filter>
<filter id="filter3_i_1351_3527" x="8.1355" y="8.16895" width="5.92188" height="8.92188" filterUnits="userSpaceOnUse" color-interpolation-filters="sRGB">
<feFlood flood-opacity="0" result="BackgroundImageFix"/>
<feBlend mode="normal" in="SourceGraphic" in2="BackgroundImageFix" result="shape"/>
<feColorMatrix in="SourceAlpha" type="matrix" values="0 0 0 0 0 0 0 0 0 0 0 0 0 0 0 0 0 0 127 0" result="hardAlpha"/>
<feOffset dx="0.75" dy="-0.75"/>
<feGaussianBlur stdDeviation="1"/>
<feComposite in2="hardAlpha" operator="arithmetic" k2="-1" k3="1"/>
<feColorMatrix type="matrix" values="0 0 0 0 0.921569 0 0 0 0 0.533333 0 0 0 0 0.223529 0 0 0 1 0"/>
<feBlend mode="normal" in2="shape" result="effect1_innerShadow_1351_3527"/>
</filter>
<filter id="filter4_i_1351_3527" x="12.698" y="6.60645" width="5.82812" height="10.4844" filterUnits="userSpaceOnUse" color-interpolation-filters="sRGB">
<feFlood flood-opacity="0" result="BackgroundImageFix"/>
<feBlend mode="normal" in="SourceGraphic" in2="BackgroundImageFix" result="shape"/>
<feColorMatrix in="SourceAlpha" type="matrix" values="0 0 0 0 0 0 0 0 0 0 0 0 0 0 0 0 0 0 127 0" result="hardAlpha"/>
<feOffset dx="0.75" dy="-0.75"/>
<feGaussianBlur stdDeviation="1"/>
<feComposite in2="hardAlpha" operator="arithmetic" k2="-1" k3="1"/>
<feColorMatrix type="matrix" values="0 0 0 0 0.921569 0 0 0 0 0.533333 0 0 0 0 0.223529 0 0 0 1 0"/>
<feBlend mode="normal" in2="shape" result="effect1_innerShadow_1351_3527"/>
</filter>
<filter id="filter5_f_1351_3527" x="18.3318" y="2.19678" width="4.63623" height="13.4443" filterUnits="userSpaceOnUse" color-interpolation-filters="sRGB">
<feFlood flood-opacity="0" result="BackgroundImageFix"/>
<feBlend mode="normal" in="SourceGraphic" in2="BackgroundImageFix" result="shape"/>
<feGaussianBlur stdDeviation="0.75" result="effect1_foregroundBlur_1351_3527"/>
</filter>
<filter id="filter6_f_1351_3527" x="13.519" y="7.0918" width="5.46802" height="10.2642" filterUnits="userSpaceOnUse" color-interpolation-filters="sRGB">
<feFlood flood-opacity="0" result="BackgroundImageFix"/>
<feBlend mode="normal" in="SourceGraphic" in2="BackgroundImageFix" result="shape"/>
<feGaussianBlur stdDeviation="1" result="effect1_foregroundBlur_1351_3527"/>
</filter>
<radialGradient id="paint0_radial_1351_3527" cx="0" cy="0" r="1" gradientUnits="userSpaceOnUse" gradientTransform="translate(9.85224 11.9876) rotate(162.775) scale(6.45778 3.48717)">
<stop stop-color="#E79330"/>
<stop offset="1" stop-color="#E79330" stop-opacity="0"/>
</radialGradient>
<radialGradient id="paint1_radial_1351_3527" cx="0" cy="0" r="1" gradientUnits="userSpaceOnUse" gradientTransform="translate(23.6223 18.3341) rotate(161.288) scale(9.43002 12.796)">
<stop stop-color="#FFE542"/>
<stop offset="1" stop-color="#FFE542" stop-opacity="0"/>
</radialGradient>
<radialGradient id="paint2_radial_1351_3527" cx="0" cy="0" r="1" gradientUnits="userSpaceOnUse" gradientTransform="translate(30.4651 17.8746) rotate(170.185) scale(8.18707 12.8551)">
<stop offset="0.692767" stop-color="#FFDC42" stop-opacity="0"/>
<stop offset="1" stop-color="#FFDC42"/>
</radialGradient>
<radialGradient id="paint3_radial_1351_3527" cx="0" cy="0" r="1" gradientUnits="userSpaceOnUse" gradientTransform="translate(26.7556 19.7384) rotate(135.167) scale(8.73491 1.93512)">
<stop stop-color="#F2A159"/>
<stop offset="1" stop-color="#F2A159" stop-opacity="0"/>
</radialGradient>
<radialGradient id="paint4_radial_1351_3527" cx="0" cy="0" r="1" gradientUnits="userSpaceOnUse" gradientTransform="translate(29.6014 13.76) rotate(152.247) scale(3.09366 3.53115)">
<stop offset="0.103192" stop-color="#FFE847"/>
<stop offset="1" stop-color="#FFE847" stop-opacity="0"/>
</radialGradient>
<radialGradient id="paint5_radial_1351_3527" cx="0" cy="0" r="1" gradientUnits="userSpaceOnUse" gradientTransform="translate(24.4675 13.4107) rotate(59.5002) scale(0.863669 2.71772)">
<stop stop-color="#D4A33C"/>
<stop offset="1" stop-color="#D4A33C" stop-opacity="0"/>
</radialGradient>
<linearGradient id="paint6_linear_1351_3527" x1="16.8741" y1="8.39414" x2="18.7972" y2="8.39414" gradientUnits="userSpaceOnUse">
<stop stop-color="#E3961F"/>
<stop offset="1" stop-color="#E3961F" stop-opacity="0"/>
</linearGradient>
<linearGradient id="paint7_linear_1351_3527" x1="19.3365" y1="12.7879" x2="19.3365" y2="10.4109" gradientUnits="userSpaceOnUse">
<stop stop-color="#FEC942"/>
<stop offset="1" stop-color="#FEC942" stop-opacity="0"/>
</linearGradient>
<radialGradient id="paint8_radial_1351_3527" cx="0" cy="0" r="1" gradientUnits="userSpaceOnUse" gradientTransform="translate(22.83 2.06738) rotate(131.001) scale(3.89746 6.61187)">
<stop stop-color="#FFE645"/>
<stop offset="1" stop-color="#FFE645" stop-opacity="0"/>
</radialGradient>
<radialGradient id="paint9_radial_1351_3527" cx="0" cy="0" r="1" gradientUnits="userSpaceOnUse" gradientTransform="translate(17.4634 9.91895) scale(0.875 3.0625)">
<stop offset="0.215686" stop-color="#D17703"/>
<stop offset="1" stop-color="#D17703" stop-opacity="0"/>
</radialGradient>
<linearGradient id="paint10_linear_1351_3527" x1="9.45444" y1="11.5418" x2="12.2818" y2="11.6551" gradientUnits="userSpaceOnUse">
<stop stop-color="#FABB25"/>
<stop offset="1" stop-color="#FFD43E"/>
</linearGradient>
<linearGradient id="paint11_linear_1351_3527" x1="12.9177" y1="13.0049" x2="12.4084" y2="13.0049" gradientUnits="userSpaceOnUse">
<stop stop-color="#E59617"/>
<stop offset="1" stop-color="#E59617" stop-opacity="0"/>
</linearGradient>
<radialGradient id="paint12_radial_1351_3527" cx="0" cy="0" r="1" gradientUnits="userSpaceOnUse" gradientTransform="translate(13.3074 10.3577) rotate(149.179) scale(1.07751 2.24971)">
<stop offset="0.214605" stop-color="#AD690C"/>
<stop offset="1" stop-color="#AD690C" stop-opacity="0"/>
</radialGradient>
<linearGradient id="paint13_linear_1351_3527" x1="13.5506" y1="10.6158" x2="17.7761" y2="10.6158" gradientUnits="userSpaceOnUse">
<stop stop-color="#FABB25"/>
<stop offset="1" stop-color="#FFD43E"/>
</linearGradient>
<linearGradient id="paint14_linear_1351_3527" x1="20.6499" y1="3.69678" x2="20.6499" y2="14.141" gradientUnits="userSpaceOnUse">
<stop stop-color="#FFE948"/>
<stop offset="1" stop-color="#FFE948" stop-opacity="0"/>
</linearGradient>
</defs>
</svg>
