<svg viewBox="0 0 32 32" fill="none" xmlns="http://www.w3.org/2000/svg">
<path d="M20.3505 7.07742C21.5671 9.76007 23.0601 13.0522 24.1809 14.3599C24.3998 13.8518 24.3763 12.9999 24.6264 10.9209C24.8523 9.04352 26.4006 8.86535 27.065 8.99822C28.5343 9.3046 28.9819 10.7939 28.9329 11.343C28.8548 12.2183 28.851 12.1885 28.6906 14.3051C28.4562 17.4002 29.652 19.7371 29.7614 22.3867C29.7614 27.381 25.3846 29.8351 22.3208 29.8351C19.8697 29.8351 17.4177 28.2668 16.498 27.4826L11.9023 23.2855C11.3396 22.8478 9.94874 21.4037 9.33864 20.5734C7.67544 18.31 10.0812 16.7515 11.4333 17.1423C11.327 17.061 10.6856 16.0194 10.3782 15.5088C9.55289 13.8518 10.3782 12.7481 10.9879 12.445C12.3713 11.7572 13.3873 12.531 13.7078 12.953C13.5853 12.7446 13.2013 11.9026 12.5823 10.3582C11.9633 8.81376 12.9601 7.85972 13.5358 7.57574C14.7864 6.99737 15.9744 7.73206 16.2714 8.38859C16.4168 8.71008 17.2013 10.4283 17.5429 11.1861C17.2855 10.5577 16.8192 9.30941 16.6543 8.73248C16.3261 7.37253 17.1154 6.43987 17.6156 6.20018C18.3112 5.86692 19.762 5.77963 20.3355 7.04429L20.3505 7.07742Z" fill="url(#paint0_radial_1351_3528)"/>
<path d="M20.3503 7.07742C21.5669 9.76007 23.0599 13.0522 24.1807 14.3599C24.3995 13.8518 24.3761 12.9999 24.6262 10.9209C24.852 9.04352 26.4004 8.86535 27.0647 8.99822C28.5341 9.3046 28.9817 10.7939 28.9327 11.343C28.8545 12.2183 28.8507 12.1885 28.6904 14.3051C28.4559 17.4002 29.6517 19.7371 29.7612 22.3867C29.7612 27.381 25.3843 29.8351 22.3205 29.8351C19.8695 29.8351 17.4174 28.2668 16.4978 27.4826L11.9021 23.2855C11.3393 22.8478 9.94849 21.4037 9.3384 20.5734C7.6752 18.31 10.081 16.7515 11.433 17.1423C11.3267 17.061 10.6854 16.0194 10.378 15.5088C9.55264 13.8518 10.378 12.7481 10.9876 12.445C12.371 11.7572 13.3871 12.531 13.7075 12.953C13.5851 12.7446 13.2011 11.9026 12.5821 10.3582C11.963 8.81376 12.9598 7.85972 13.5356 7.57574C14.7861 6.99737 15.9741 7.73206 16.2711 8.38859C16.4165 8.71008 17.201 10.4283 17.5426 11.1861C17.2852 10.5577 16.8189 9.30941 16.6541 8.73248C16.3258 7.37253 17.1152 6.43987 17.6154 6.20018C18.3109 5.86692 19.7617 5.77963 20.3353 7.04429L20.3503 7.07742Z" fill="url(#paint1_radial_1351_3528)"/>
<path d="M28.9327 11.3428C28.8545 12.2182 28.8507 12.1884 28.6904 14.305C28.6075 15.3986 29.2021 19.4263 29.2021 19.4263C27.7569 19.8982 24.6261 19.2725 24.1807 14.3597C24.3995 13.8517 24.3761 12.9998 24.6262 10.9208C24.852 9.04338 26.4003 8.86521 27.0647 8.99808C28.534 9.30446 28.9817 10.7938 28.9327 11.3428Z" fill="url(#paint2_radial_1351_3528)"/>
<path d="M28.9327 11.3428C28.8545 12.2182 28.8507 12.1884 28.6904 14.305C28.6075 15.3986 29.2021 19.4263 29.2021 19.4263C27.7569 19.8982 24.6261 19.2725 24.1807 14.3597C24.3995 13.8517 24.3761 12.9998 24.6262 10.9208C24.852 9.04338 26.4003 8.86521 27.0647 8.99808C28.534 9.30446 28.9817 10.7938 28.9327 11.3428Z" fill="url(#paint3_radial_1351_3528)"/>
<path d="M28.9327 11.3428C28.8545 12.2182 28.8507 12.1884 28.6904 14.305C28.6075 15.3986 29.2021 19.4263 29.2021 19.4263C27.7569 19.8982 24.6261 19.2725 24.1807 14.3597C24.3995 13.8517 24.3761 12.9998 24.6262 10.9208C24.852 9.04338 26.4003 8.86521 27.0647 8.99808C28.534 9.30446 28.9817 10.7938 28.9327 11.3428Z" fill="url(#paint4_radial_1351_3528)"/>
<path d="M20.3504 7.07743C21.567 9.76008 23.06 13.0522 24.1808 14.3599C24.0054 15.8563 22.668 16.5717 21.5156 16.3039C20.0625 15.882 19.5113 14.8508 19.5113 14.8508C19.5113 14.8508 19.1318 14.2633 18.7613 13.6164C18.3328 12.868 18.4109 12.8848 17.6937 11.5305C17.553 11.2648 16.8626 9.46195 16.6542 8.73248C16.3259 7.37253 17.1153 6.43987 17.6155 6.20018C18.311 5.86692 19.7618 5.77963 20.3354 7.04429L20.3504 7.07743Z" fill="url(#paint5_radial_1351_3528)"/>
<path d="M20.3504 7.07743C21.567 9.76008 23.06 13.0522 24.1808 14.3599C24.0054 15.8563 22.668 16.5717 21.5156 16.3039C20.0625 15.882 19.5113 14.8508 19.5113 14.8508C19.5113 14.8508 19.1318 14.2633 18.7613 13.6164C18.3328 12.868 18.4109 12.8848 17.6937 11.5305C17.553 11.2648 16.8626 9.46195 16.6542 8.73248C16.3259 7.37253 17.1153 6.43987 17.6155 6.20018C18.311 5.86692 19.7618 5.77963 20.3354 7.04429L20.3504 7.07743Z" fill="url(#paint6_linear_1351_3528)"/>
<path d="M20.3504 7.07743C21.567 9.76008 23.06 13.0522 24.1808 14.3599C24.0054 15.8563 22.668 16.5717 21.5156 16.3039C20.0625 15.882 19.5113 14.8508 19.5113 14.8508C19.5113 14.8508 19.1318 14.2633 18.7613 13.6164C18.3328 12.868 18.4109 12.8848 17.6937 11.5305C17.553 11.2648 16.8626 9.46195 16.6542 8.73248C16.3259 7.37253 17.1153 6.43987 17.6155 6.20018C18.311 5.86692 19.7618 5.77963 20.3354 7.04429L20.3504 7.07743Z" fill="url(#paint7_radial_1351_3528)"/>
<path d="M20.3504 7.07743C21.567 9.76008 23.06 13.0522 24.1808 14.3599C24.0054 15.8563 22.668 16.5717 21.5156 16.3039C20.0625 15.882 19.5113 14.8508 19.5113 14.8508C19.5113 14.8508 19.1318 14.2633 18.7613 13.6164C18.3328 12.868 18.4109 12.8848 17.6937 11.5305C17.553 11.2648 16.8626 9.46195 16.6542 8.73248C16.3259 7.37253 17.1153 6.43987 17.6155 6.20018C18.311 5.86692 19.7618 5.77963 20.3354 7.04429L20.3504 7.07743Z" fill="url(#paint8_radial_1351_3528)"/>
<path d="M20.3504 7.07743C21.567 9.76008 23.06 13.0522 24.1808 14.3599C24.0054 15.8563 22.668 16.5717 21.5156 16.3039C20.0625 15.882 19.5113 14.8508 19.5113 14.8508C19.5113 14.8508 19.1318 14.2633 18.7613 13.6164C18.3328 12.868 18.4109 12.8848 17.6937 11.5305C17.553 11.2648 16.8626 9.46195 16.6542 8.73248C16.3259 7.37253 17.1153 6.43987 17.6155 6.20018C18.311 5.86692 19.7618 5.77963 20.3354 7.04429L20.3504 7.07743Z" fill="url(#paint9_linear_1351_3528)"/>
<path d="M16.2712 8.38843C16.4668 8.82088 17.8187 11.7805 17.6937 11.5304C18.0573 12.35 19.1831 14.3506 19.5113 14.8975C20.2348 16.1034 19.4182 17.1066 18.8906 17.4131C17.3742 18.2938 16.5034 17.1709 16.5034 17.1709C15.7037 15.9984 15.0347 15.0225 13.7144 12.9444C13.3962 12.3455 12.816 11.0068 12.5822 10.358C12.005 8.7563 12.9599 7.85956 13.5357 7.57559C14.7862 6.99722 15.9742 7.7319 16.2712 8.38843Z" fill="url(#paint10_radial_1351_3528)"/>
<path d="M16.2712 8.38843C16.4668 8.82088 17.8187 11.7805 17.6937 11.5304C18.0573 12.35 19.1831 14.3506 19.5113 14.8975C20.2348 16.1034 19.4182 17.1066 18.8906 17.4131C17.3742 18.2938 16.5034 17.1709 16.5034 17.1709C15.7037 15.9984 15.0347 15.0225 13.7144 12.9444C13.3962 12.3455 12.816 11.0068 12.5822 10.358C12.005 8.7563 12.9599 7.85956 13.5357 7.57559C14.7862 6.99722 15.9742 7.7319 16.2712 8.38843Z" fill="url(#paint11_linear_1351_3528)"/>
<path d="M16.2712 8.38843C16.4668 8.82088 17.8187 11.7805 17.6937 11.5304C18.0573 12.35 19.1831 14.3506 19.5113 14.8975C20.2348 16.1034 19.4182 17.1066 18.8906 17.4131C17.3742 18.2938 16.5034 17.1709 16.5034 17.1709C15.7037 15.9984 15.0347 15.0225 13.7144 12.9444C13.3962 12.3455 12.816 11.0068 12.5822 10.358C12.005 8.7563 12.9599 7.85956 13.5357 7.57559C14.7862 6.99722 15.9742 7.7319 16.2712 8.38843Z" fill="url(#paint12_radial_1351_3528)"/>
<path d="M16.2712 8.38843C16.4668 8.82088 17.8187 11.7805 17.6937 11.5304C18.0573 12.35 19.1831 14.3506 19.5113 14.8975C20.2348 16.1034 19.4182 17.1066 18.8906 17.4131C17.3742 18.2938 16.5034 17.1709 16.5034 17.1709C15.7037 15.9984 15.0347 15.0225 13.7144 12.9444C13.3962 12.3455 12.816 11.0068 12.5822 10.358C12.005 8.7563 12.9599 7.85956 13.5357 7.57559C14.7862 6.99722 15.9742 7.7319 16.2712 8.38843Z" fill="url(#paint13_radial_1351_3528)"/>
<path d="M16.2712 8.38843C16.4668 8.82088 17.8187 11.7805 17.6937 11.5304C18.0573 12.35 19.1831 14.3506 19.5113 14.8975C20.2348 16.1034 19.4182 17.1066 18.8906 17.4131C17.3742 18.2938 16.5034 17.1709 16.5034 17.1709C15.7037 15.9984 15.0347 15.0225 13.7144 12.9444C13.3962 12.3455 12.816 11.0068 12.5822 10.358C12.005 8.7563 12.9599 7.85956 13.5357 7.57559C14.7862 6.99722 15.9742 7.7319 16.2712 8.38843Z" fill="url(#paint14_radial_1351_3528)"/>
<path d="M16.2712 8.38843C16.4668 8.82088 17.8187 11.7805 17.6937 11.5304C18.0573 12.35 19.1831 14.3506 19.5113 14.8975C20.2348 16.1034 19.4182 17.1066 18.8906 17.4131C17.3742 18.2938 16.5034 17.1709 16.5034 17.1709C15.7037 15.9984 15.0347 15.0225 13.7144 12.9444C13.3962 12.3455 12.816 11.0068 12.5822 10.358C12.005 8.7563 12.9599 7.85956 13.5357 7.57559C14.7862 6.99722 15.9742 7.7319 16.2712 8.38843Z" fill="url(#paint15_linear_1351_3528)"/>
<path d="M10.9877 12.4448C12.3711 11.757 13.3871 12.5308 13.7076 12.9528C14.7065 14.4599 15.8979 16.1738 16.4487 17.0849C17.9174 19.5146 14.9096 20.5693 14.9096 20.5693C12.144 17.4521 11.6323 17.2944 11.4331 17.1421C11.3268 17.0608 10.6854 16.0192 10.378 15.5086C9.55269 13.8516 10.3781 12.7479 10.9877 12.4448Z" fill="url(#paint16_radial_1351_3528)"/>
<path d="M10.9877 12.4448C12.3711 11.757 13.3871 12.5308 13.7076 12.9528C14.7065 14.4599 15.8979 16.1738 16.4487 17.0849C17.9174 19.5146 14.9096 20.5693 14.9096 20.5693C12.144 17.4521 11.6323 17.2944 11.4331 17.1421C11.3268 17.0608 10.6854 16.0192 10.378 15.5086C9.55269 13.8516 10.3781 12.7479 10.9877 12.4448Z" fill="url(#paint17_linear_1351_3528)"/>
<path d="M10.9877 12.4448C12.3711 11.757 13.3871 12.5308 13.7076 12.9528C14.7065 14.4599 15.8979 16.1738 16.4487 17.0849C17.9174 19.5146 14.9096 20.5693 14.9096 20.5693C12.144 17.4521 11.6323 17.2944 11.4331 17.1421C11.3268 17.0608 10.6854 16.0192 10.378 15.5086C9.55269 13.8516 10.3781 12.7479 10.9877 12.4448Z" fill="url(#paint18_radial_1351_3528)"/>
<path d="M10.9877 12.4448C12.3711 11.757 13.3871 12.5308 13.7076 12.9528C14.7065 14.4599 15.8979 16.1738 16.4487 17.0849C17.9174 19.5146 14.9096 20.5693 14.9096 20.5693C12.144 17.4521 11.6323 17.2944 11.4331 17.1421C11.3268 17.0608 10.6854 16.0192 10.378 15.5086C9.55269 13.8516 10.3781 12.7479 10.9877 12.4448Z" fill="url(#paint19_radial_1351_3528)"/>
<path d="M10.9877 12.4448C12.3711 11.757 13.3871 12.5308 13.7076 12.9528C14.7065 14.4599 15.8979 16.1738 16.4487 17.0849C17.9174 19.5146 14.9096 20.5693 14.9096 20.5693C12.144 17.4521 11.6323 17.2944 11.4331 17.1421C11.3268 17.0608 10.6854 16.0192 10.378 15.5086C9.55269 13.8516 10.3781 12.7479 10.9877 12.4448Z" fill="url(#paint20_radial_1351_3528)"/>
<path d="M10.9877 12.4448C12.3711 11.757 13.3871 12.5308 13.7076 12.9528C14.7065 14.4599 15.8979 16.1738 16.4487 17.0849C17.9174 19.5146 14.9096 20.5693 14.9096 20.5693C12.144 17.4521 11.6323 17.2944 11.4331 17.1421C11.3268 17.0608 10.6854 16.0192 10.378 15.5086C9.55269 13.8516 10.3781 12.7479 10.9877 12.4448Z" fill="url(#paint21_radial_1351_3528)"/>
<path d="M9.3384 20.5732C7.6752 18.3098 10.081 16.7513 11.433 17.1421C12.0737 17.5381 13.0621 18.5292 13.4842 18.9756C16.1655 21.5907 15.7186 22.3975 14.9686 23.2853C14.242 23.8882 13.2972 24.3704 11.9021 23.2853C11.3393 22.8476 9.94849 21.4035 9.3384 20.5732Z" fill="url(#paint22_radial_1351_3528)"/>
<path d="M9.3384 20.5732C7.6752 18.3098 10.081 16.7513 11.433 17.1421C12.0737 17.5381 13.0621 18.5292 13.4842 18.9756C16.1655 21.5907 15.7186 22.3975 14.9686 23.2853C14.242 23.8882 13.2972 24.3704 11.9021 23.2853C11.3393 22.8476 9.94849 21.4035 9.3384 20.5732Z" fill="url(#paint23_radial_1351_3528)"/>
<path d="M9.3384 20.5732C7.6752 18.3098 10.081 16.7513 11.433 17.1421C12.0737 17.5381 13.0621 18.5292 13.4842 18.9756C16.1655 21.5907 15.7186 22.3975 14.9686 23.2853C14.242 23.8882 13.2972 24.3704 11.9021 23.2853C11.3393 22.8476 9.94849 21.4035 9.3384 20.5732Z" fill="url(#paint24_radial_1351_3528)"/>
<path d="M9.3384 20.5732C7.6752 18.3098 10.081 16.7513 11.433 17.1421C12.0737 17.5381 13.0621 18.5292 13.4842 18.9756C16.1655 21.5907 15.7186 22.3975 14.9686 23.2853C14.242 23.8882 13.2972 24.3704 11.9021 23.2853C11.3393 22.8476 9.94849 21.4035 9.3384 20.5732Z" fill="url(#paint25_radial_1351_3528)"/>
<path d="M9.3384 20.5732C7.6752 18.3098 10.081 16.7513 11.433 17.1421C12.0737 17.5381 13.0621 18.5292 13.4842 18.9756C16.1655 21.5907 15.7186 22.3975 14.9686 23.2853C14.242 23.8882 13.2972 24.3704 11.9021 23.2853C11.3393 22.8476 9.94849 21.4035 9.3384 20.5732Z" fill="url(#paint26_linear_1351_3528)"/>
<path d="M20.3503 7.07742C21.5669 9.76007 23.0599 13.0522 24.1807 14.3599C24.3995 13.8518 24.3761 12.9999 24.6262 10.9209C24.852 9.04352 26.4004 8.86535 27.0647 8.99822C28.5341 9.3046 28.9817 10.7939 28.9327 11.343C28.8545 12.2183 28.8507 12.1885 28.6904 14.3051C28.4559 17.4002 29.6517 19.7371 29.7612 22.3867C29.7612 27.381 25.3843 29.8351 22.3205 29.8351C19.8695 29.8351 17.4174 28.2668 16.4978 27.4826L11.9021 23.2855C11.3393 22.8478 9.94849 21.4037 9.3384 20.5734C7.6752 18.31 10.081 16.7515 11.433 17.1423C11.3267 17.061 10.6854 16.0194 10.378 15.5088C9.55264 13.8518 10.378 12.7481 10.9876 12.445C12.371 11.7572 13.3871 12.531 13.7075 12.953C13.5851 12.7446 13.2011 11.9026 12.5821 10.3582C11.963 8.81376 12.9598 7.85972 13.5356 7.57574C14.7861 6.99737 15.9741 7.73206 16.2711 8.38859C16.4165 8.71008 17.201 10.4283 17.5426 11.1861C17.2852 10.5577 16.8189 9.30941 16.6541 8.73248C16.3258 7.37253 17.1152 6.43987 17.6154 6.20018C18.3109 5.86692 19.7617 5.77963 20.3353 7.04429L20.3503 7.07742Z" fill="url(#paint27_radial_1351_3528)"/>
<path d="M20.3503 7.07742C21.5669 9.76007 23.0599 13.0522 24.1807 14.3599C24.3995 13.8518 24.3761 12.9999 24.6262 10.9209C24.852 9.04352 26.4004 8.86535 27.0647 8.99822C28.5341 9.3046 28.9817 10.7939 28.9327 11.343C28.8545 12.2183 28.8507 12.1885 28.6904 14.3051C28.4559 17.4002 29.6517 19.7371 29.7612 22.3867C29.7612 27.381 25.3843 29.8351 22.3205 29.8351C19.8695 29.8351 17.4174 28.2668 16.4978 27.4826L11.9021 23.2855C11.3393 22.8478 9.94849 21.4037 9.3384 20.5734C7.6752 18.31 10.081 16.7515 11.433 17.1423C11.3267 17.061 10.6854 16.0194 10.378 15.5088C9.55264 13.8518 10.378 12.7481 10.9876 12.445C12.371 11.7572 13.3871 12.531 13.7075 12.953C13.5851 12.7446 13.2011 11.9026 12.5821 10.3582C11.963 8.81376 12.9598 7.85972 13.5356 7.57574C14.7861 6.99737 15.9741 7.73206 16.2711 8.38859C16.4165 8.71008 17.201 10.4283 17.5426 11.1861C17.2852 10.5577 16.8189 9.30941 16.6541 8.73248C16.3258 7.37253 17.1152 6.43987 17.6154 6.20018C18.3109 5.86692 19.7617 5.77963 20.3353 7.04429L20.3503 7.07742Z" fill="url(#paint28_radial_1351_3528)"/>
<path d="M20.3503 7.07742C21.5669 9.76007 23.0599 13.0522 24.1807 14.3599C24.3995 13.8518 24.3761 12.9999 24.6262 10.9209C24.852 9.04352 26.4004 8.86535 27.0647 8.99822C28.5341 9.3046 28.9817 10.7939 28.9327 11.343C28.8545 12.2183 28.8507 12.1885 28.6904 14.3051C28.4559 17.4002 29.6517 19.7371 29.7612 22.3867C29.7612 27.381 25.3843 29.8351 22.3205 29.8351C19.8695 29.8351 17.4174 28.2668 16.4978 27.4826L11.9021 23.2855C11.3393 22.8478 9.94849 21.4037 9.3384 20.5734C7.6752 18.31 10.081 16.7515 11.433 17.1423C11.3267 17.061 10.6854 16.0194 10.378 15.5088C9.55264 13.8518 10.378 12.7481 10.9876 12.445C12.371 11.7572 13.3871 12.531 13.7075 12.953C13.5851 12.7446 13.2011 11.9026 12.5821 10.3582C11.963 8.81376 12.9598 7.85972 13.5356 7.57574C14.7861 6.99737 15.9741 7.73206 16.2711 8.38859C16.4165 8.71008 17.201 10.4283 17.5426 11.1861C17.2852 10.5577 16.8189 9.30941 16.6541 8.73248C16.3258 7.37253 17.1152 6.43987 17.6154 6.20018C18.3109 5.86692 19.7617 5.77963 20.3353 7.04429L20.3503 7.07742Z" fill="url(#paint29_radial_1351_3528)"/>
<path d="M22.0462 10.6675C22.7969 12.2021 23.547 13.5768 24.1808 14.3296C24.2456 14.9992 24.3042 15.382 24.4643 15.9601C23.1987 14.6945 21.9748 11.9269 22.0462 10.6675Z" fill="url(#paint30_radial_1351_3528)"/>
<path fill-rule="evenodd" clip-rule="evenodd" d="M4.12588 16.9004C4.42354 16.9004 4.66484 17.1417 4.66484 17.4394C4.66484 18.34 5.02905 19.5454 5.81358 20.5185C6.58469 21.475 7.75349 22.1995 9.39372 22.1995C9.69139 22.1995 9.93269 22.4408 9.93269 22.7385C9.93269 23.0361 9.69139 23.2774 9.39372 23.2774C7.3918 23.2774 5.92667 22.3762 4.97441 21.1951C4.03555 20.0306 3.58691 18.5864 3.58691 17.4394C3.58691 17.1417 3.82822 16.9004 4.12588 16.9004Z" fill="url(#paint31_radial_1351_3528)"/>
<path fill-rule="evenodd" clip-rule="evenodd" d="M4.12588 16.9004C4.42354 16.9004 4.66484 17.1417 4.66484 17.4394C4.66484 18.34 5.02905 19.5454 5.81358 20.5185C6.58469 21.475 7.75349 22.1995 9.39372 22.1995C9.69139 22.1995 9.93269 22.4408 9.93269 22.7385C9.93269 23.0361 9.69139 23.2774 9.39372 23.2774C7.3918 23.2774 5.92667 22.3762 4.97441 21.1951C4.03555 20.0306 3.58691 18.5864 3.58691 17.4394C3.58691 17.1417 3.82822 16.9004 4.12588 16.9004Z" fill="url(#paint32_radial_1351_3528)"/>
<path fill-rule="evenodd" clip-rule="evenodd" d="M4.12588 16.9004C4.42354 16.9004 4.66484 17.1417 4.66484 17.4394C4.66484 18.34 5.02905 19.5454 5.81358 20.5185C6.58469 21.475 7.75349 22.1995 9.39372 22.1995C9.69139 22.1995 9.93269 22.4408 9.93269 22.7385C9.93269 23.0361 9.69139 23.2774 9.39372 23.2774C7.3918 23.2774 5.92667 22.3762 4.97441 21.1951C4.03555 20.0306 3.58691 18.5864 3.58691 17.4394C3.58691 17.1417 3.82822 16.9004 4.12588 16.9004Z" fill="url(#paint33_radial_1351_3528)"/>
<path fill-rule="evenodd" clip-rule="evenodd" d="M2.44839 18.8232C2.74605 18.8232 2.98735 19.0645 2.98735 19.3622C2.98735 21.2726 4.41844 23.8253 7.42363 23.8253C7.72129 23.8253 7.96259 24.0667 7.96259 24.3643C7.96259 24.662 7.72129 24.9033 7.42363 24.9033C3.64471 24.9033 1.90942 21.6723 1.90942 19.3622C1.90942 19.0645 2.15073 18.8232 2.44839 18.8232Z" fill="url(#paint34_radial_1351_3528)"/>
<path fill-rule="evenodd" clip-rule="evenodd" d="M2.44839 18.8232C2.74605 18.8232 2.98735 19.0645 2.98735 19.3622C2.98735 21.2726 4.41844 23.8253 7.42363 23.8253C7.72129 23.8253 7.96259 24.0667 7.96259 24.3643C7.96259 24.662 7.72129 24.9033 7.42363 24.9033C3.64471 24.9033 1.90942 21.6723 1.90942 19.3622C1.90942 19.0645 2.15073 18.8232 2.44839 18.8232Z" fill="url(#paint35_radial_1351_3528)"/>
<path fill-rule="evenodd" clip-rule="evenodd" d="M22.6363 9.85216C22.3387 9.8541 22.0958 9.61438 22.0939 9.31672C22.088 8.4161 21.7159 7.21307 20.925 6.24512C20.1477 5.29372 18.9742 4.57687 17.334 4.58759C17.0363 4.58954 16.7934 4.34982 16.7915 4.05216C16.7896 3.75451 17.0293 3.51163 17.3269 3.50969C19.3288 3.4966 20.7998 4.38819 21.7598 5.5631C22.7062 6.72146 23.1643 8.16261 23.1718 9.30968C23.1737 9.60734 22.934 9.85021 22.6363 9.85216Z" fill="url(#paint36_radial_1351_3528)"/>
<path fill-rule="evenodd" clip-rule="evenodd" d="M22.6363 9.85216C22.3387 9.8541 22.0958 9.61438 22.0939 9.31672C22.088 8.4161 21.7159 7.21307 20.925 6.24512C20.1477 5.29372 18.9742 4.57687 17.334 4.58759C17.0363 4.58954 16.7934 4.34982 16.7915 4.05216C16.7896 3.75451 17.0293 3.51163 17.3269 3.50969C19.3288 3.4966 20.7998 4.38819 21.7598 5.5631C22.7062 6.72146 23.1643 8.16261 23.1718 9.30968C23.1737 9.60734 22.934 9.85021 22.6363 9.85216Z" fill="url(#paint37_radial_1351_3528)"/>
<path fill-rule="evenodd" clip-rule="evenodd" d="M24.3002 7.91856C24.0025 7.92051 23.7596 7.68079 23.7577 7.38313C23.7452 5.47274 22.2975 2.92944 19.2923 2.94908C18.9947 2.95102 18.7518 2.7113 18.7499 2.41365C18.7479 2.11599 18.9876 1.87312 19.2853 1.87117C23.0641 1.84647 24.8205 5.06604 24.8356 7.37609C24.8375 7.67374 24.5978 7.91662 24.3002 7.91856Z" fill="url(#paint38_radial_1351_3528)"/>
<path fill-rule="evenodd" clip-rule="evenodd" d="M24.3002 7.91856C24.0025 7.92051 23.7596 7.68079 23.7577 7.38313C23.7452 5.47274 22.2975 2.92944 19.2923 2.94908C18.9947 2.95102 18.7518 2.7113 18.7499 2.41365C18.7479 2.11599 18.9876 1.87312 19.2853 1.87117C23.0641 1.84647 24.8205 5.06604 24.8356 7.37609C24.8375 7.67374 24.5978 7.91662 24.3002 7.91856Z" fill="url(#paint39_radial_1351_3528)"/>
<g filter="url(#filter0_f_1351_3528)">
<path fill-rule="evenodd" clip-rule="evenodd" d="M23.4587 14.0549C23.6652 14.5671 23.4174 15.1498 22.9052 15.3563C21.1261 16.0737 17.0863 18.4442 15.8988 23.713C15.7774 24.2518 15.2422 24.5901 14.7034 24.4687C14.1646 24.3472 13.8263 23.812 13.9478 23.2733C15.3373 17.108 20.0614 14.3465 22.1573 13.5014C22.6695 13.2949 23.2521 13.5427 23.4587 14.0549Z" fill="#FFC339"/>
</g>
<defs>
<filter id="filter0_f_1351_3528" x="11.9231" y="11.4287" width="13.6084" height="15.0645" filterUnits="userSpaceOnUse" color-interpolation-filters="sRGB">
<feFlood flood-opacity="0" result="BackgroundImageFix"/>
<feBlend mode="normal" in="SourceGraphic" in2="BackgroundImageFix" result="shape"/>
<feGaussianBlur stdDeviation="1" result="effect1_foregroundBlur_1351_3528"/>
</filter>
<radialGradient id="paint0_radial_1351_3528" cx="0" cy="0" r="1" gradientUnits="userSpaceOnUse" gradientTransform="translate(19.2674 13.8351) rotate(60.1006) scale(21.052 13.753)">
<stop offset="0.00323036" stop-color="#FFC133"/>
<stop offset="0.697824" stop-color="#FFC53F"/>
<stop offset="0.797459" stop-color="#FFAD3E"/>
<stop offset="0.945275" stop-color="#EC7D58"/>
</radialGradient>
<radialGradient id="paint1_radial_1351_3528" cx="0" cy="0" r="1" gradientUnits="userSpaceOnUse" gradientTransform="translate(29.7612 18.4601) rotate(-93.0118) scale(12.4901 4.78491)">
<stop offset="0.00323036" stop-color="#FFE849"/>
<stop offset="1" stop-color="#FFE647" stop-opacity="0"/>
</radialGradient>
<radialGradient id="paint2_radial_1351_3528" cx="0" cy="0" r="1" gradientUnits="userSpaceOnUse" gradientTransform="translate(28.2611 9.52249) rotate(99.6824) scale(6.68903 2.56255)">
<stop offset="0.00323036" stop-color="#FFE849"/>
<stop offset="1" stop-color="#FFE647" stop-opacity="0"/>
</radialGradient>
<radialGradient id="paint3_radial_1351_3528" cx="0" cy="0" r="1" gradientUnits="userSpaceOnUse" gradientTransform="translate(24.1807 13.5508) scale(2.70547 10.9717)">
<stop stop-color="#EE9F2C"/>
<stop offset="1" stop-color="#EE9F2C" stop-opacity="0"/>
</radialGradient>
<radialGradient id="paint4_radial_1351_3528" cx="0" cy="0" r="1" gradientUnits="userSpaceOnUse" gradientTransform="translate(25.3679 17.8041) rotate(-94.0856) scale(4.55371 3.16291)">
<stop stop-color="#FFC93D"/>
<stop offset="1" stop-color="#FFC33A" stop-opacity="0"/>
</radialGradient>
<radialGradient id="paint5_radial_1351_3528" cx="0" cy="0" r="1" gradientUnits="userSpaceOnUse" gradientTransform="translate(22.8238 10.8913) rotate(151.024) scale(4.78668 9.6155)">
<stop offset="0.563302" stop-color="#F09D2E" stop-opacity="0"/>
<stop offset="1" stop-color="#F09D2E"/>
</radialGradient>
<linearGradient id="paint6_linear_1351_3528" x1="20.3787" y1="15.7952" x2="20.3787" y2="13.2101" gradientUnits="userSpaceOnUse">
<stop stop-color="#FFC337"/>
<stop offset="1" stop-color="#FFC337" stop-opacity="0"/>
</linearGradient>
<radialGradient id="paint7_radial_1351_3528" cx="0" cy="0" r="1" gradientUnits="userSpaceOnUse" gradientTransform="translate(21.8238 7.08513) rotate(-13.4957) scale(3.21374 7.10677)">
<stop stop-color="#FFEC4C"/>
<stop offset="1" stop-color="#FFEC4C" stop-opacity="0"/>
</radialGradient>
<radialGradient id="paint8_radial_1351_3528" cx="0" cy="0" r="1" gradientUnits="userSpaceOnUse" gradientTransform="translate(16.5767 5.9873) rotate(33.3064) scale(3.13745 2.43249)">
<stop stop-color="#D99F2B"/>
<stop offset="1" stop-color="#D99F2B" stop-opacity="0"/>
</radialGradient>
<linearGradient id="paint9_linear_1351_3528" x1="17.0738" y1="12.3039" x2="18.6363" y2="11.5539" gradientUnits="userSpaceOnUse">
<stop stop-color="#A85300"/>
<stop offset="0.824742" stop-color="#A85300" stop-opacity="0"/>
</linearGradient>
<radialGradient id="paint10_radial_1351_3528" cx="0" cy="0" r="1" gradientUnits="userSpaceOnUse" gradientTransform="translate(18.3129 12.3704) rotate(149.148) scale(4.61415 9.62882)">
<stop offset="0.563302" stop-color="#F09D2E" stop-opacity="0"/>
<stop offset="1" stop-color="#F09D2E"/>
</radialGradient>
<linearGradient id="paint11_linear_1351_3528" x1="15.9999" y1="17.3745" x2="15.9999" y2="14.7366" gradientUnits="userSpaceOnUse">
<stop stop-color="#FFC337"/>
<stop offset="1" stop-color="#FFC337" stop-opacity="0"/>
</linearGradient>
<radialGradient id="paint12_radial_1351_3528" cx="0" cy="0" r="1" gradientUnits="userSpaceOnUse" gradientTransform="translate(17.7812 9.42873) rotate(-33.8929) scale(3.06215 9.32271)">
<stop stop-color="#FFEC4C"/>
<stop offset="1" stop-color="#FFEC4C" stop-opacity="0"/>
</radialGradient>
<radialGradient id="paint13_radial_1351_3528" cx="0" cy="0" r="1" gradientUnits="userSpaceOnUse" gradientTransform="translate(15.4488 13.21) rotate(-24.9048) scale(3.85884 17.6199)">
<stop offset="0.597587" stop-color="#F09D2E" stop-opacity="0"/>
<stop offset="1" stop-color="#F09D2E"/>
</radialGradient>
<radialGradient id="paint14_radial_1351_3528" cx="0" cy="0" r="1" gradientUnits="userSpaceOnUse" gradientTransform="translate(11.9488 7.36621) rotate(32.6006) scale(3.19011 2.54257)">
<stop stop-color="#D99F2B"/>
<stop offset="1" stop-color="#D99F2B" stop-opacity="0"/>
</radialGradient>
<linearGradient id="paint15_linear_1351_3528" x1="13.355" y1="13.835" x2="14.3947" y2="13.1081" gradientUnits="userSpaceOnUse">
<stop stop-color="#A85300"/>
<stop offset="0.824742" stop-color="#A85300" stop-opacity="0"/>
</linearGradient>
<radialGradient id="paint16_radial_1351_3528" cx="0" cy="0" r="1" gradientUnits="userSpaceOnUse" gradientTransform="translate(15.6353 16.3701) rotate(137.351) scale(3.82257 7.48534)">
<stop offset="0.563302" stop-color="#F09D2E" stop-opacity="0"/>
<stop offset="1" stop-color="#F09D2E"/>
</radialGradient>
<linearGradient id="paint17_linear_1351_3528" x1="13.4416" y1="20.5693" x2="13.4416" y2="18.3557" gradientUnits="userSpaceOnUse">
<stop stop-color="#FFC337"/>
<stop offset="1" stop-color="#FFC337" stop-opacity="0"/>
</linearGradient>
<radialGradient id="paint18_radial_1351_3528" cx="0" cy="0" r="1" gradientUnits="userSpaceOnUse" gradientTransform="translate(14.6972 13.0887) rotate(-12.2956) scale(2.91135 6.16703)">
<stop stop-color="#FFEC4C"/>
<stop offset="1" stop-color="#FFEC4C" stop-opacity="0"/>
</radialGradient>
<radialGradient id="paint19_radial_1351_3528" cx="0" cy="0" r="1" gradientUnits="userSpaceOnUse" gradientTransform="translate(12.9189 17.0746) rotate(-40.2165) scale(4.04959 20.7029)">
<stop offset="0.597587" stop-color="#F09D2E" stop-opacity="0"/>
<stop offset="1" stop-color="#F09D2E"/>
</radialGradient>
<radialGradient id="paint20_radial_1351_3528" cx="0" cy="0" r="1" gradientUnits="userSpaceOnUse" gradientTransform="translate(9.5994 12.1709) rotate(29.5034) scale(2.92865 2.20418)">
<stop stop-color="#D99F2B"/>
<stop offset="1" stop-color="#D99F2B" stop-opacity="0"/>
</radialGradient>
<radialGradient id="paint21_radial_1351_3528" cx="0" cy="0" r="1" gradientUnits="userSpaceOnUse" gradientTransform="translate(11.1362 17.9287) rotate(-45.7639) scale(1.65743 7.48347)">
<stop stop-color="#A85300"/>
<stop offset="0.824742" stop-color="#A85300" stop-opacity="0"/>
</radialGradient>
<radialGradient id="paint22_radial_1351_3528" cx="0" cy="0" r="1" gradientUnits="userSpaceOnUse" gradientTransform="translate(14.785 20.7177) rotate(143.369) scale(3.75802 7.07093)">
<stop offset="0.563302" stop-color="#F09D2E" stop-opacity="0"/>
<stop offset="1" stop-color="#F09D2E"/>
</radialGradient>
<radialGradient id="paint23_radial_1351_3528" cx="0" cy="0" r="1" gradientUnits="userSpaceOnUse" gradientTransform="translate(13.7788 17.8767) rotate(-9.97765) scale(3.09805 5.38208)">
<stop stop-color="#FFEC4C"/>
<stop offset="1" stop-color="#FFEC4C" stop-opacity="0"/>
</radialGradient>
<radialGradient id="paint24_radial_1351_3528" cx="0" cy="0" r="1" gradientUnits="userSpaceOnUse" gradientTransform="translate(11.8714 21.3277) rotate(-34.3137) scale(4.01583 19.3881)">
<stop offset="0.597587" stop-color="#F09D2E" stop-opacity="0"/>
<stop offset="1" stop-color="#F09D2E"/>
</radialGradient>
<radialGradient id="paint25_radial_1351_3528" cx="0" cy="0" r="1" gradientUnits="userSpaceOnUse" gradientTransform="translate(8.31076 17.082) rotate(24.5478) scale(3.0057 1.99452)">
<stop stop-color="#D99F2B"/>
<stop offset="1" stop-color="#D99F2B" stop-opacity="0"/>
</radialGradient>
<linearGradient id="paint26_linear_1351_3528" x1="14.9487" y1="27.585" x2="12.4321" y2="22.4368" gradientUnits="userSpaceOnUse">
<stop stop-color="#FFC337"/>
<stop offset="1" stop-color="#FFC337" stop-opacity="0"/>
</linearGradient>
<radialGradient id="paint27_radial_1351_3528" cx="0" cy="0" r="1" gradientUnits="userSpaceOnUse" gradientTransform="translate(23.9487 12.5226) rotate(129.014) scale(17.3747 28.0986)">
<stop offset="0.872168" stop-color="#F6814F" stop-opacity="0"/>
<stop offset="1" stop-color="#F7814F"/>
</radialGradient>
<radialGradient id="paint28_radial_1351_3528" cx="0" cy="0" r="1" gradientUnits="userSpaceOnUse" gradientTransform="translate(20.3237 12.7101) rotate(76.293) scale(18.4633 20.2583)">
<stop offset="0.853453" stop-color="#F6814F" stop-opacity="0"/>
<stop offset="1" stop-color="#F7814F"/>
</radialGradient>
<radialGradient id="paint29_radial_1351_3528" cx="0" cy="0" r="1" gradientUnits="userSpaceOnUse" gradientTransform="translate(24.5112 8.02263) rotate(64.44) scale(3.18689 2.84106)">
<stop stop-color="#D99F2B"/>
<stop offset="1" stop-color="#D99F2B" stop-opacity="0"/>
</radialGradient>
<radialGradient id="paint30_radial_1351_3528" cx="0" cy="0" r="1" gradientUnits="userSpaceOnUse" gradientTransform="translate(24.4643 14.1163) rotate(149.254) scale(1.2136 3.75534)">
<stop offset="0.200941" stop-color="#B4813D"/>
<stop offset="1" stop-color="#B4813D" stop-opacity="0"/>
</radialGradient>
<radialGradient id="paint31_radial_1351_3528" cx="0" cy="0" r="1" gradientUnits="userSpaceOnUse" gradientTransform="translate(4.89268 17.1893) rotate(62.071) scale(5.31217 7.87818)">
<stop stop-color="#419FFD"/>
<stop offset="1" stop-color="#4B6DCB"/>
</radialGradient>
<radialGradient id="paint32_radial_1351_3528" cx="0" cy="0" r="1" gradientUnits="userSpaceOnUse" gradientTransform="translate(3.39046 17.5851) rotate(2.38594) scale(0.750651 1.57975)">
<stop stop-color="#5486C7"/>
<stop offset="1" stop-color="#5486C7" stop-opacity="0"/>
</radialGradient>
<radialGradient id="paint33_radial_1351_3528" cx="0" cy="0" r="1" gradientUnits="userSpaceOnUse" gradientTransform="translate(9.01546 21.8663) rotate(111.801) scale(0.757289 2.22747)">
<stop stop-color="#5486C7"/>
<stop offset="1" stop-color="#5486C7" stop-opacity="0"/>
</radialGradient>
<radialGradient id="paint34_radial_1351_3528" cx="0" cy="0" r="1" gradientUnits="userSpaceOnUse" gradientTransform="translate(5.28119 19.9603) rotate(94.7123) scale(4.2017 7.06475)">
<stop stop-color="#419FFD"/>
<stop offset="1" stop-color="#4B6DCB"/>
</radialGradient>
<radialGradient id="paint35_radial_1351_3528" cx="0" cy="0" r="1" gradientUnits="userSpaceOnUse" gradientTransform="translate(1.72203 19.4761) rotate(2.38479) scale(0.716037 1.50618)">
<stop stop-color="#5486C7"/>
<stop offset="1" stop-color="#5486C7" stop-opacity="0"/>
</radialGradient>
<radialGradient id="paint36_radial_1351_3528" cx="0" cy="0" r="1" gradientUnits="userSpaceOnUse" gradientTransform="translate(18.5078 2.34638) rotate(60.1958) scale(4.46319 6.61911)">
<stop stop-color="#419FFD"/>
<stop offset="1" stop-color="#4B6DCB"/>
</radialGradient>
<radialGradient id="paint37_radial_1351_3528" cx="0" cy="0" r="1" gradientUnits="userSpaceOnUse" gradientTransform="translate(16.6701 3.96257) rotate(18.8618) scale(0.642112 1.03351)">
<stop stop-color="#4D8AC1"/>
<stop offset="1" stop-color="#4D8AC1" stop-opacity="0"/>
</radialGradient>
<radialGradient id="paint38_radial_1351_3528" cx="0" cy="0" r="1" gradientUnits="userSpaceOnUse" gradientTransform="translate(20.3868 0.762206) rotate(60.69) scale(5.54462 8.22505)">
<stop stop-color="#419FFD"/>
<stop offset="1" stop-color="#4B6DCB"/>
</radialGradient>
<radialGradient id="paint39_radial_1351_3528" cx="0" cy="0" r="1" gradientUnits="userSpaceOnUse" gradientTransform="translate(18.6339 2.30313) rotate(18.8531) scale(0.612472 0.985431)">
<stop stop-color="#4D8AC1"/>
<stop offset="1" stop-color="#4D8AC1" stop-opacity="0"/>
</radialGradient>
</defs>
</svg>
