<svg viewBox="0 0 24 24" xmlns="http://www.w3.org/2000/svg">
<g id="Icon=Home">
<path id="Vector (Stroke)" fill-rule="evenodd" clip-rule="evenodd" d="M10.9885 2.90501C11.2649 2.65264 11.6257 2.5127 12 2.5127C12.3743 2.5127 12.7351 2.65264 13.0115 2.90501C13.0118 2.90533 13.0122 2.90565 13.0125 2.90597L20.5107 9.71991L20.0062 10.275L20.5212 9.72969C20.6694 9.86967 20.7881 10.0379 20.8703 10.2244C20.9526 10.411 20.9966 10.6121 20.9999 10.8159L21.0001 10.8281L21 19.5C21 19.8978 20.842 20.2793 20.5607 20.5606C20.2794 20.8419 19.8978 21 19.5 21H4.5C4.10218 21 3.72065 20.8419 3.43934 20.5606C3.15804 20.2793 3 19.8978 3 19.5V10.8159C3.0033 10.6121 3.04745 10.411 3.12966 10.2244C3.21187 10.0379 3.33057 9.86967 3.47879 9.72969L3.48935 9.71991L10.9875 2.90597C10.9878 2.90565 10.9882 2.90533 10.9885 2.90501ZM19.5 10.8383V19.5H4.5V10.8383C4.50026 10.8352 4.50103 10.8322 4.50229 10.8293C4.50349 10.8266 4.50512 10.8241 4.50711 10.8219L11.9982 4.01438L12 4.0127L12.0018 4.01438L19.4929 10.8219C19.4949 10.8241 19.4965 10.8266 19.4977 10.8293C19.499 10.8322 19.4997 10.8352 19.5 10.8383Z"/>
</g>
</svg>
