<svg viewBox="0 0 33 33" fill="none" xmlns="http://www.w3.org/2000/svg">
<g id="link">
<path id="Vector" d="M17.3375 24.2699C17.4773 24.4093 17.5883 24.5749 17.664 24.7572C17.7397 24.9395 17.7787 25.135 17.7787 25.3324C17.7787 25.5298 17.7397 25.7253 17.664 25.9076C17.5883 26.09 17.4773 26.2556 17.3375 26.3949L16.595 27.1374C15.188 28.5444 13.2798 29.3348 11.29 29.3348C9.30024 29.3348 7.39197 28.5444 5.985 27.1374C4.57803 25.7304 3.7876 23.8222 3.7876 21.8324C3.7876 19.8427 4.57803 17.9344 5.985 16.5274L9 13.5137C10.3519 12.1585 12.1707 11.3714 14.084 11.3138C15.9973 11.2562 17.8603 11.9323 19.2913 13.2037C19.439 13.335 19.5594 13.4941 19.6456 13.672C19.7319 13.8498 19.7822 14.043 19.7939 14.2403C19.8055 14.4376 19.7781 14.6353 19.7133 14.822C19.6485 15.0088 19.5476 15.1809 19.4163 15.3287C19.2849 15.4764 19.1258 15.5968 18.9479 15.6831C18.7701 15.7693 18.577 15.8197 18.3796 15.8313C18.1823 15.8429 17.9846 15.8155 17.7979 15.7507C17.6111 15.6859 17.439 15.585 17.2913 15.4537C16.4331 14.6916 15.3163 14.2861 14.1691 14.3203C13.022 14.3545 11.9312 14.8256 11.12 15.6374L8.1075 18.6474C7.26345 19.4915 6.78927 20.6362 6.78927 21.8299C6.78927 23.0236 7.26345 24.1684 8.1075 25.0124C8.95155 25.8565 10.0963 26.3307 11.29 26.3307C12.4837 26.3307 13.6284 25.8565 14.4725 25.0124L15.215 24.2699C15.3543 24.1305 15.5197 24.0198 15.7018 23.9443C15.8839 23.8688 16.0791 23.83 16.2763 23.83C16.4734 23.83 16.6686 23.8688 16.8507 23.9443C17.0328 24.0198 17.1982 24.1305 17.3375 24.2699ZM26.5975 6.51992C25.1894 5.11511 23.2815 4.32617 21.2925 4.32617C19.3035 4.32617 17.3956 5.11511 15.9875 6.51992L15.245 7.26242C14.9632 7.54421 14.8049 7.9264 14.8049 8.32492C14.8049 8.72343 14.9632 9.10563 15.245 9.38742C15.5268 9.66921 15.909 9.82752 16.3075 9.82752C16.706 9.82752 17.0882 9.66921 17.37 9.38742L18.1125 8.64492C18.9566 7.80087 20.1013 7.32668 21.295 7.32668C22.4887 7.32668 23.6334 7.80087 24.4775 8.64492C25.3216 9.48897 25.7957 10.6337 25.7957 11.8274C25.7957 13.0211 25.3216 14.1659 24.4775 15.0099L21.4638 18.0249C20.6518 18.8364 19.5604 19.3069 18.413 19.3401C17.2656 19.3733 16.1488 18.9668 15.2913 18.2037C15.1435 18.0723 14.9714 17.9714 14.7846 17.9066C14.5979 17.8418 14.4002 17.8145 14.2029 17.8261C14.0055 17.8377 13.8124 17.888 13.6346 17.9743C13.4567 18.0605 13.2976 18.1809 13.1663 18.3287C13.0349 18.4764 12.934 18.6486 12.8692 18.8353C12.8044 19.0221 12.777 19.2197 12.7886 19.4171C12.8003 19.6144 12.8506 19.8075 12.9369 19.9853C13.0231 20.1632 13.1435 20.3223 13.2913 20.4537C14.7212 21.7248 16.5829 22.4013 18.4953 22.3448C20.4077 22.2884 22.2263 21.5032 23.5788 20.1499L26.5938 17.1362C28.0002 15.7284 28.7905 13.82 28.7912 11.8301C28.7919 9.84011 28.003 7.93119 26.5975 6.52242V6.51992Z" fill="black"/>
</g>
</svg>
