<svg viewBox="0 0 24 24" fill="none" xmlns="http://www.w3.org/2000/svg">
<g id="linkedin">
<path id="Vector" d="M19.875 2.625H4.125C3.72718 2.625 3.34564 2.78304 3.06434 3.06434C2.78304 3.34564 2.625 3.72718 2.625 4.125V19.875C2.625 20.2728 2.78304 20.6544 3.06434 20.9357C3.34564 21.217 3.72718 21.375 4.125 21.375H19.875C20.2728 21.375 20.6544 21.217 20.9357 20.9357C21.217 20.6544 21.375 20.2728 21.375 19.875V4.125C21.375 3.72718 21.217 3.34564 20.9357 3.06434C20.6544 2.78304 20.2728 2.625 19.875 2.625ZM9 16.5C9 16.6989 8.92098 16.8897 8.78033 17.0303C8.63968 17.171 8.44891 17.25 8.25 17.25C8.05109 17.25 7.86032 17.171 7.71967 17.0303C7.57902 16.8897 7.5 16.6989 7.5 16.5V10.5C7.5 10.3011 7.57902 10.1103 7.71967 9.96967C7.86032 9.82902 8.05109 9.75 8.25 9.75C8.44891 9.75 8.63968 9.82902 8.78033 9.96967C8.92098 10.1103 9 10.3011 9 10.5V16.5ZM8.25 8.625C8.0275 8.625 7.80999 8.55902 7.62498 8.4354C7.43998 8.31179 7.29578 8.13609 7.21064 7.93052C7.12549 7.72495 7.10321 7.49875 7.14662 7.28052C7.19002 7.06229 7.29717 6.86184 7.4545 6.7045C7.61184 6.54717 7.81229 6.44002 8.03052 6.39662C8.24875 6.35321 8.47495 6.37549 8.68052 6.46064C8.88609 6.54578 9.06179 6.68998 9.1854 6.87498C9.30902 7.05999 9.375 7.2775 9.375 7.5C9.375 7.79837 9.25647 8.08452 9.0455 8.2955C8.83452 8.50647 8.54837 8.625 8.25 8.625ZM17.25 16.5C17.25 16.6989 17.171 16.8897 17.0303 17.0303C16.8897 17.171 16.6989 17.25 16.5 17.25C16.3011 17.25 16.1103 17.171 15.9697 17.0303C15.829 16.8897 15.75 16.6989 15.75 16.5V13.125C15.75 12.6277 15.5525 12.1508 15.2008 11.7992C14.8492 11.4475 14.3723 11.25 13.875 11.25C13.3777 11.25 12.9008 11.4475 12.5492 11.7992C12.1975 12.1508 12 12.6277 12 13.125V16.5C12 16.6989 11.921 16.8897 11.7803 17.0303C11.6397 17.171 11.4489 17.25 11.25 17.25C11.0511 17.25 10.8603 17.171 10.7197 17.0303C10.579 16.8897 10.5 16.6989 10.5 16.5V10.5C10.4995 10.3154 10.567 10.1371 10.6898 9.99926C10.8125 9.86139 10.9817 9.7736 11.1651 9.75271C11.3485 9.73182 11.5331 9.77928 11.6837 9.88603C11.8343 9.99277 11.9402 10.1513 11.9813 10.3312C12.4887 9.98723 13.0803 9.78795 13.6925 9.75481C14.3047 9.72166 14.9144 9.85591 15.4561 10.1431C15.9977 10.4303 16.4509 10.8597 16.767 11.385C17.083 11.9104 17.25 12.5119 17.25 13.125V16.5Z"/>
</g>
</svg>
