<svg width="40" height="40" viewBox="0 0 40 40" fill="none" xmlns="http://www.w3.org/2000/svg">
<g id="State=Logo">
<path id="Subtract" fill-rule="evenodd" clip-rule="evenodd" d="M39.5784 24.1192C39.8547 22.7935 40 21.4198 40 20.012C40 8.95969 31.0457 0 20 0C8.9543 0 0 8.95969 0 20.012C0 30.7325 8.42457 39.484 19.0107 40L19.1395 38.9038L19.1397 38.9021L19.1399 38.9001L19.1406 38.8947L19.1427 38.8793C19.1444 38.8669 19.1467 38.8504 19.1498 38.8298C19.1559 38.7887 19.165 38.7316 19.1778 38.6594C19.2032 38.5152 19.2434 38.311 19.3039 38.0557C19.4248 37.5456 19.6276 36.8301 19.9583 35.9821C20.4066 34.833 21.0913 33.437 22.1283 31.9795L15.3397 33.4589L15.3362 33.4596C14.5988 33.6175 13.7723 33.5608 13.0389 33.1875C12.0198 32.6692 11.2101 31.8026 11.0836 30.6031C10.9606 29.438 11.5169 28.2515 12.5452 27.1376C12.9775 26.6694 13.535 26.0516 14.1925 25.3229L14.1926 25.3228C15.2047 24.2012 16.4541 22.8167 17.8491 21.3101C16.5339 20.7333 16.1633 19.3435 16.42 19.0869C16.6007 18.9064 16.8826 18.9819 17.2377 19.0771C17.6449 19.1862 18.1483 19.321 18.7055 19.1251L9.21164 8.21995C8.99839 7.95201 9.3361 7.59699 9.61473 7.7962L21.3133 15.6876C21.2772 15.064 21.2612 14.6257 21.2548 14.3277C21.2506 14.1337 21.2504 13.9987 21.2514 13.9103C21.2519 13.8661 21.2527 13.8335 21.2534 13.8109L21.2543 13.7857C21.2645 12.9849 22.228 12.5968 22.7974 13.1424L22.7983 13.1432L22.8274 13.169C22.8528 13.1915 22.8898 13.2244 22.9368 13.2665C23.0307 13.3507 23.1647 13.4718 23.3258 13.6203C23.3891 13.6786 23.4567 13.7413 23.5277 13.8076L24.1296 13.7138C25.6646 13.4746 27.5255 13.5173 29.5612 14.5138C30.9493 15.1933 32.2335 16.3009 33.1998 17.6636C33.9637 17.8975 34.6701 18.3929 35.262 18.998C35.8653 19.6149 36.3976 20.3933 36.8005 21.2681C37.3781 21.4347 38.0326 21.7631 38.5953 22.3694C39.0168 22.8238 39.3565 23.4015 39.5784 24.1192Z"/>
</g>
</svg>
