<svg viewBox="0 0 24 24" xmlns="http://www.w3.org/2000/svg">
<g id="Icon=PaperPlaneTilt">
<path id="Vector (Stroke)" fill-rule="evenodd" clip-rule="evenodd" d="M19.5091 2.64464C19.7646 2.57076 20.0351 2.56653 20.2928 2.63244C20.5518 2.69871 20.7883 2.83345 20.9774 3.02253C21.1665 3.21162 21.3012 3.44809 21.3675 3.70716C21.4334 3.96478 21.4291 4.23533 21.3553 4.49073L16.4358 21.9573C16.4355 21.9583 16.4352 21.9594 16.4349 21.9605C16.3532 22.2567 16.1825 22.5207 15.9458 22.7168C15.7083 22.9135 15.4159 23.0323 15.1085 23.0569C14.801 23.0815 14.4935 23.0107 14.2277 22.8542C13.9639 22.6988 13.754 22.4665 13.6261 22.1884L9.83154 14.1684L1.81152 10.3738C1.53343 10.246 1.30107 10.036 1.1457 9.7722C0.989193 9.50643 0.918415 9.19887 0.943011 8.89142C0.967606 8.58397 1.08638 8.29158 1.28315 8.05407C1.47921 7.81743 1.74319 7.64674 2.03938 7.56504C2.04047 7.56474 2.04156 7.56444 2.04265 7.56414L19.5091 2.64464ZM19.9097 4.09017L2.43826 9.01105L2.44874 9.01581L10.2381 12.7013L14.1039 8.83545C14.3968 8.54256 14.8717 8.54256 15.1646 8.83545C15.4575 9.12835 15.4575 9.60322 15.1646 9.89611L11.2987 13.762L14.9889 21.5615L14.9904 21.5561L19.9097 4.09017Z"/>
</g>
</svg>
