<svg viewBox="0 0 24 24" fill="none" xmlns="http://www.w3.org/2000/svg">
<g id="telegram">
<path id="Vector" d="M20.7099 3.65451C20.7099 3.65451 22.6524 2.89701 22.4899 4.73651C22.4364 5.49401 21.9509 8.14551 21.5729 11.013L20.2779 19.508C20.2779 19.508 20.1699 20.7525 19.1984 20.969C18.2274 21.185 16.7704 20.2115 16.5004 19.995C16.2844 19.8325 12.4534 17.3975 11.1044 16.2075C10.7264 15.8825 10.2944 15.2335 11.1584 14.476L16.8239 9.06501C17.4714 8.41601 18.1189 6.90101 15.4209 8.74051L7.86591 13.8805C7.86591 13.8805 7.00241 14.422 5.38391 13.935L1.87591 12.8525C1.87591 12.8525 0.580914 12.041 2.79341 11.2295C8.18991 8.68651 14.8274 6.08951 20.7089 3.65451H20.7099Z"/>
</g>
</svg>
