<svg width="32" height="32" viewBox="0 0 32 32" fill="none" xmlns="http://www.w3.org/2000/svg">
<g clip-path="url(#clip0_1268_1427)">
<path d="M5.25152 2.119L14.1631 8.49561C15.2381 11.1456 13.0902 11.5373 11.8818 11.4019L4.84214 2.54971C4.62557 2.27737 4.96854 1.91652 5.25152 2.119Z" fill="url(#paint0_linear_1268_1427)"/>
<path d="M5.25152 2.119L14.1631 8.49561C15.2381 11.1456 13.0902 11.5373 11.8818 11.4019L4.84214 2.54971C4.62557 2.27737 4.96854 1.91652 5.25152 2.119Z" fill="url(#paint1_linear_1268_1427)"/>
<path d="M5.25152 2.119L14.1631 8.49561C15.2381 11.1456 13.0902 11.5373 11.8818 11.4019L4.84214 2.54971C4.62557 2.27737 4.96854 1.91652 5.25152 2.119Z" fill="url(#paint2_radial_1268_1427)"/>
<g filter="url(#filter0_f_1268_1427)">
<path d="M5.31323 2.46094L11.6814 7.45778" stroke="white" stroke-width="0.15" stroke-linecap="round"/>
</g>
<path d="M10.821 6.81976C12.376 4.77463 19.4726 4.15664 16.4226 7.11664C14.6126 8.87664 13.4761 10.7979 11.1561 11.7979C7.24981 13.2823 6.06717 10.1792 6.53587 9.71039C7.00456 9.24159 7.84494 10.2052 8.94993 9.74164C9.72884 9.41489 9.7826 8.18557 10.821 6.81976Z" fill="url(#paint3_linear_1268_1427)"/>
<path d="M10.821 6.81976C12.376 4.77463 19.4726 4.15664 16.4226 7.11664C14.6126 8.87664 13.4761 10.7979 11.1561 11.7979C7.24981 13.2823 6.06717 10.1792 6.53587 9.71039C7.00456 9.24159 7.84494 10.2052 8.94993 9.74164C9.72884 9.41489 9.7826 8.18557 10.821 6.81976Z" fill="url(#paint4_linear_1268_1427)"/>
<path d="M10.821 6.81976C12.376 4.77463 19.4726 4.15664 16.4226 7.11664C14.6126 8.87664 13.4761 10.7979 11.1561 11.7979C7.24981 13.2823 6.06717 10.1792 6.53587 9.71039C7.00456 9.24159 7.84494 10.2052 8.94993 9.74164C9.72884 9.41489 9.7826 8.18557 10.821 6.81976Z" fill="url(#paint5_radial_1268_1427)"/>
<path d="M10.821 6.81976C12.376 4.77463 19.4726 4.15664 16.4226 7.11664C14.6126 8.87664 13.4761 10.7979 11.1561 11.7979C7.24981 13.2823 6.06717 10.1792 6.53587 9.71039C7.00456 9.24159 7.84494 10.2052 8.94993 9.74164C9.72884 9.41489 9.7826 8.18557 10.821 6.81976Z" fill="url(#paint6_radial_1268_1427)"/>
<path d="M10.821 6.81976C12.376 4.77463 19.4726 4.15664 16.4226 7.11664C14.6126 8.87664 13.4761 10.7979 11.1561 11.7979C7.24981 13.2823 6.06717 10.1792 6.53587 9.71039C7.00456 9.24159 7.84494 10.2052 8.94993 9.74164C9.72884 9.41489 9.7826 8.18557 10.821 6.81976Z" fill="url(#paint7_radial_1268_1427)"/>
<g filter="url(#filter1_f_1268_1427)">
<path d="M8.38965 10.1124C8.48104 10.3692 8.69824 10.5851 9.2506 10.5851C9.88387 10.5851 10.2632 10.0897 10.61 9.13982C10.9568 8.1899 11.7598 7.03364 13.1621 6.77731L13.0392 5.76514C12.1281 6.06683 11.3131 6.51251 10.8962 7.06075C10.4316 7.67188 10.1641 8.25569 9.94055 8.74354C9.66451 9.34597 9.45553 9.80208 9.02514 9.98262C8.80225 10.0761 8.59013 10.1116 8.38965 10.1124Z" fill="url(#paint8_linear_1268_1427)"/>
</g>
<path d="M14.735 20.7975C11.3639 24.3549 10.5006 28.4436 10.3153 29.6115C10.2875 29.7866 10.4241 29.9381 10.6014 29.9381H25.6005C27.7405 29.9381 29.4205 27.856 29.2205 25.716C28.6205 19.376 26.4205 7.68604 18.3105 7.68604C14.8205 7.68604 17.055 18.3575 14.735 20.7975Z" fill="url(#paint9_radial_1268_1427)"/>
<path d="M14.735 20.7975C11.3639 24.3549 10.5006 28.4436 10.3153 29.6115C10.2875 29.7866 10.4241 29.9381 10.6014 29.9381H25.6005C27.7405 29.9381 29.4205 27.856 29.2205 25.716C28.6205 19.376 26.4205 7.68604 18.3105 7.68604C14.8205 7.68604 17.055 18.3575 14.735 20.7975Z" fill="url(#paint10_radial_1268_1427)"/>
<path d="M14.735 20.7975C11.3639 24.3549 10.5006 28.4436 10.3153 29.6115C10.2875 29.7866 10.4241 29.9381 10.6014 29.9381H25.6005C27.7405 29.9381 29.4205 27.856 29.2205 25.716C28.6205 19.376 26.4205 7.68604 18.3105 7.68604C14.8205 7.68604 17.055 18.3575 14.735 20.7975Z" fill="url(#paint11_linear_1268_1427)"/>
<path d="M14.735 20.7975C11.3639 24.3549 10.5006 28.4436 10.3153 29.6115C10.2875 29.7866 10.4241 29.9381 10.6014 29.9381H25.6005C27.7405 29.9381 29.4205 27.856 29.2205 25.716C28.6205 19.376 26.4205 7.68604 18.3105 7.68604C14.8205 7.68604 17.055 18.3575 14.735 20.7975Z" fill="url(#paint12_radial_1268_1427)"/>
<path d="M14.735 20.7975C11.3639 24.3549 10.5006 28.4436 10.3153 29.6115C10.2875 29.7866 10.4241 29.9381 10.6014 29.9381H25.6005C27.7405 29.9381 29.4205 27.856 29.2205 25.716C28.6205 19.376 26.4205 7.68604 18.3105 7.68604C14.8205 7.68604 17.055 18.3575 14.735 20.7975Z" fill="url(#paint13_linear_1268_1427)"/>
<path d="M29.3287 16.9225C29.3287 13.2662 27.0058 12.7141 26.11 12.7349C26.3079 13.5266 26.3912 16.035 25.1412 19.735C23.8912 23.435 24.9225 28.2037 25.61 29.9537C28.2819 29.9537 29.3287 29.61 29.3287 27.6725V16.9225Z" fill="url(#paint14_linear_1268_1427)"/>
<path d="M29.3287 16.9225C29.3287 13.2662 27.0058 12.7141 26.11 12.7349C26.3079 13.5266 26.3912 16.035 25.1412 19.735C23.8912 23.435 24.9225 28.2037 25.61 29.9537C28.2819 29.9537 29.3287 29.61 29.3287 27.6725V16.9225Z" fill="url(#paint15_linear_1268_1427)"/>
<path d="M29.3287 16.9225C29.3287 13.2662 27.0058 12.7141 26.11 12.7349C26.3079 13.5266 26.3912 16.035 25.1412 19.735C23.8912 23.435 24.9225 28.2037 25.61 29.9537C28.2819 29.9537 29.3287 29.61 29.3287 27.6725V16.9225Z" fill="url(#paint16_radial_1268_1427)" fill-opacity="0.75"/>
<g filter="url(#filter2_f_1268_1427)">
<path d="M26.6251 14.9536C26.7284 15.3857 27.1187 16.2345 26.2975 19.335C25.5318 22.2256 24.9693 24.8038 26.0943 29.1788" stroke="#F1B3FF" stroke-width="0.5" stroke-linecap="round"/>
</g>
<path d="M26.7976 17.2354C27.8601 13.2354 24.9226 9.0791 22.6101 9.0791C23.4226 10.9333 23.9226 15.2979 22.6101 17.4229C21.1144 19.8445 20.8757 26.4541 21.6257 29.9541H26.3757C24.6757 25.1291 25.7351 21.2354 26.7976 17.2354Z" fill="url(#paint17_linear_1268_1427)"/>
<path d="M26.7976 17.2354C27.8601 13.2354 24.9226 9.0791 22.6101 9.0791C23.4226 10.9333 23.9226 15.2979 22.6101 17.4229C21.1144 19.8445 20.8757 26.4541 21.6257 29.9541H26.3757C24.6757 25.1291 25.7351 21.2354 26.7976 17.2354Z" fill="url(#paint18_linear_1268_1427)"/>
<path d="M26.7976 17.2354C27.8601 13.2354 24.9226 9.0791 22.6101 9.0791C23.4226 10.9333 23.9226 15.2979 22.6101 17.4229C21.1144 19.8445 20.8757 26.4541 21.6257 29.9541H26.3757C24.6757 25.1291 25.7351 21.2354 26.7976 17.2354Z" fill="url(#paint19_radial_1268_1427)"/>
<path d="M26.7976 17.2354C27.8601 13.2354 24.9226 9.0791 22.6101 9.0791C23.4226 10.9333 23.9226 15.2979 22.6101 17.4229C21.1144 19.8445 20.8757 26.4541 21.6257 29.9541H26.3757C24.6757 25.1291 25.7351 21.2354 26.7976 17.2354Z" fill="url(#paint20_radial_1268_1427)"/>
<path d="M26.7976 17.2354C27.8601 13.2354 24.9226 9.0791 22.6101 9.0791C23.4226 10.9333 23.9226 15.2979 22.6101 17.4229C21.1144 19.8445 20.8757 26.4541 21.6257 29.9541H26.3757C24.6757 25.1291 25.7351 21.2354 26.7976 17.2354Z" fill="url(#paint21_radial_1268_1427)"/>
<g filter="url(#filter3_f_1268_1427)">
<path d="M23.5787 11.3506C24.9694 14.0225 23.9347 15.8392 22.6725 19.5537C21.5787 22.7725 21.1412 25.1475 22.1412 29.6162" stroke="#E2C0EA" stroke-width="0.5" stroke-linecap="round"/>
</g>
<path d="M2.88613 19.0563L14.8531 6.18311H17.4781L23.5719 11.6831L22.7743 13.666C21.18 17.6294 17.7401 20.5565 13.5726 21.4961L5.35427 23.349C4.04466 23.6442 2.72637 22.8906 2.31643 21.6122C2.03029 20.7199 2.24812 19.7426 2.88613 19.0563Z" fill="url(#paint22_linear_1268_1427)"/>
<path d="M2.88613 19.0563L14.8531 6.18311H17.4781L23.5719 11.6831L22.7743 13.666C21.18 17.6294 17.7401 20.5565 13.5726 21.4961L5.35427 23.349C4.04466 23.6442 2.72637 22.8906 2.31643 21.6122C2.03029 20.7199 2.24812 19.7426 2.88613 19.0563Z" fill="url(#paint23_linear_1268_1427)"/>
<path d="M2.88613 19.0563L14.8531 6.18311H17.4781L23.5719 11.6831L22.7743 13.666C21.18 17.6294 17.7401 20.5565 13.5726 21.4961L5.35427 23.349C4.04466 23.6442 2.72637 22.8906 2.31643 21.6122C2.03029 20.7199 2.24812 19.7426 2.88613 19.0563Z" fill="url(#paint24_radial_1268_1427)"/>
<path d="M2.88613 19.0563L14.8531 6.18311H17.4781L23.5719 11.6831L22.7743 13.666C21.18 17.6294 17.7401 20.5565 13.5726 21.4961L5.35427 23.349C4.04466 23.6442 2.72637 22.8906 2.31643 21.6122C2.03029 20.7199 2.24812 19.7426 2.88613 19.0563Z" fill="url(#paint25_radial_1268_1427)"/>
<path d="M2.88613 19.0563L14.8531 6.18311H17.4781L23.5719 11.6831L22.7743 13.666C21.18 17.6294 17.7401 20.5565 13.5726 21.4961L5.35427 23.349C4.04466 23.6442 2.72637 22.8906 2.31643 21.6122C2.03029 20.7199 2.24812 19.7426 2.88613 19.0563Z" fill="url(#paint26_radial_1268_1427)"/>
<path d="M2.88613 19.0563L14.8531 6.18311H17.4781L23.5719 11.6831L22.7743 13.666C21.18 17.6294 17.7401 20.5565 13.5726 21.4961L5.35427 23.349C4.04466 23.6442 2.72637 22.8906 2.31643 21.6122C2.03029 20.7199 2.24812 19.7426 2.88613 19.0563Z" fill="url(#paint27_radial_1268_1427)"/>
<path d="M2.88613 19.0563L14.8531 6.18311H17.4781L23.5719 11.6831L22.7743 13.666C21.18 17.6294 17.7401 20.5565 13.5726 21.4961L5.35427 23.349C4.04466 23.6442 2.72637 22.8906 2.31643 21.6122C2.03029 20.7199 2.24812 19.7426 2.88613 19.0563Z" fill="url(#paint28_linear_1268_1427)"/>
<g filter="url(#filter4_f_1268_1427)">
<path d="M2.79238 19.0206L14.7594 6.14746H17.3844L23.4781 11.6475L22.6805 13.6303C21.0862 17.5937 17.6464 20.5209 13.4789 21.4605L5.26052 23.3133C3.95091 23.6086 2.63262 22.8549 2.22268 21.5765C1.93654 20.6842 2.15437 19.707 2.79238 19.0206Z" fill="url(#paint29_radial_1268_1427)"/>
</g>
<g filter="url(#filter5_f_1268_1427)">
<path d="M16.3125 8.1001L4.70394 20.2616C4.37822 20.6028 4.34333 21.1282 4.62107 21.5095C4.8817 21.8674 5.35059 22.0048 5.76317 21.8444L15.6614 17.9955C17.6651 17.2164 18.6946 14.9928 17.9924 12.9609L16.3125 8.1001Z" fill="url(#paint30_linear_1268_1427)"/>
</g>
<path d="M22.2195 29.9385H15.5945C14.0045 23.1785 19.3907 18.6764 19.7507 13.6364C20.1507 7.90643 16.0107 6.84643 16.0107 6.84643C14.6907 7.17643 17.0207 8.09643 14.4307 8.09643L13.7507 6.64643L13.0632 5.5165C14.7032 5.0665 16.9054 4.68953 19.4226 5.92282C22.522 7.44132 25.1757 11.4109 24.1101 15.4854C23.0476 19.5479 20.532 22.4774 22.2195 29.9385Z" fill="url(#paint31_linear_1268_1427)"/>
<path d="M22.2195 29.9385H15.5945C14.0045 23.1785 19.3907 18.6764 19.7507 13.6364C20.1507 7.90643 16.0107 6.84643 16.0107 6.84643C14.6907 7.17643 17.0207 8.09643 14.4307 8.09643L13.7507 6.64643L13.0632 5.5165C14.7032 5.0665 16.9054 4.68953 19.4226 5.92282C22.522 7.44132 25.1757 11.4109 24.1101 15.4854C23.0476 19.5479 20.532 22.4774 22.2195 29.9385Z" fill="url(#paint32_linear_1268_1427)"/>
<path d="M22.2195 29.9385H15.5945C14.0045 23.1785 19.3907 18.6764 19.7507 13.6364C20.1507 7.90643 16.0107 6.84643 16.0107 6.84643C14.6907 7.17643 17.0207 8.09643 14.4307 8.09643L13.7507 6.64643L13.0632 5.5165C14.7032 5.0665 16.9054 4.68953 19.4226 5.92282C22.522 7.44132 25.1757 11.4109 24.1101 15.4854C23.0476 19.5479 20.532 22.4774 22.2195 29.9385Z" fill="url(#paint33_radial_1268_1427)"/>
<path d="M22.2195 29.9385H15.5945C14.0045 23.1785 19.3907 18.6764 19.7507 13.6364C20.1507 7.90643 16.0107 6.84643 16.0107 6.84643C14.6907 7.17643 17.0207 8.09643 14.4307 8.09643L13.7507 6.64643L13.0632 5.5165C14.7032 5.0665 16.9054 4.68953 19.4226 5.92282C22.522 7.44132 25.1757 11.4109 24.1101 15.4854C23.0476 19.5479 20.532 22.4774 22.2195 29.9385Z" fill="url(#paint34_radial_1268_1427)"/>
<path d="M22.2195 29.9385H15.5945C14.0045 23.1785 19.3907 18.6764 19.7507 13.6364C20.1507 7.90643 16.0107 6.84643 16.0107 6.84643C14.6907 7.17643 17.0207 8.09643 14.4307 8.09643L13.7507 6.64643L13.0632 5.5165C14.7032 5.0665 16.9054 4.68953 19.4226 5.92282C22.522 7.44132 25.1757 11.4109 24.1101 15.4854C23.0476 19.5479 20.532 22.4774 22.2195 29.9385Z" fill="url(#paint35_radial_1268_1427)"/>
<path d="M22.2195 29.9385H15.5945C14.0045 23.1785 19.3907 18.6764 19.7507 13.6364C20.1507 7.90643 16.0107 6.84643 16.0107 6.84643C14.6907 7.17643 17.0207 8.09643 14.4307 8.09643L13.7507 6.64643L13.0632 5.5165C14.7032 5.0665 16.9054 4.68953 19.4226 5.92282C22.522 7.44132 25.1757 11.4109 24.1101 15.4854C23.0476 19.5479 20.532 22.4774 22.2195 29.9385Z" fill="url(#paint36_radial_1268_1427)"/>
<path d="M22.2195 29.9385H15.5945C14.0045 23.1785 19.3907 18.6764 19.7507 13.6364C20.1507 7.90643 16.0107 6.84643 16.0107 6.84643C14.6907 7.17643 17.0207 8.09643 14.4307 8.09643L13.7507 6.64643L13.0632 5.5165C14.7032 5.0665 16.9054 4.68953 19.4226 5.92282C22.522 7.44132 25.1757 11.4109 24.1101 15.4854C23.0476 19.5479 20.532 22.4774 22.2195 29.9385Z" fill="url(#paint37_radial_1268_1427)"/>
<path d="M22.2195 29.9385H15.5945C14.0045 23.1785 19.3907 18.6764 19.7507 13.6364C20.1507 7.90643 16.0107 6.84643 16.0107 6.84643C14.6907 7.17643 17.0207 8.09643 14.4307 8.09643L13.7507 6.64643L13.0632 5.5165C14.7032 5.0665 16.9054 4.68953 19.4226 5.92282C22.522 7.44132 25.1757 11.4109 24.1101 15.4854C23.0476 19.5479 20.532 22.4774 22.2195 29.9385Z" fill="url(#paint38_radial_1268_1427)" fill-opacity="0.75"/>
<path d="M22.2195 29.9385H15.5945C14.0045 23.1785 19.3907 18.6764 19.7507 13.6364C20.1507 7.90643 16.0107 6.84643 16.0107 6.84643C14.6907 7.17643 17.0207 8.09643 14.4307 8.09643L13.7507 6.64643L13.0632 5.5165C14.7032 5.0665 16.9054 4.68953 19.4226 5.92282C22.522 7.44132 25.1757 11.4109 24.1101 15.4854C23.0476 19.5479 20.532 22.4774 22.2195 29.9385Z" fill="url(#paint39_radial_1268_1427)" fill-opacity="0.75"/>
<path d="M22.2195 29.9385H15.5945C14.0045 23.1785 19.3907 18.6764 19.7507 13.6364C20.1507 7.90643 16.0107 6.84643 16.0107 6.84643C14.6907 7.17643 17.0207 8.09643 14.4307 8.09643L13.7507 6.64643L13.0632 5.5165C14.7032 5.0665 16.9054 4.68953 19.4226 5.92282C22.522 7.44132 25.1757 11.4109 24.1101 15.4854C23.0476 19.5479 20.532 22.4774 22.2195 29.9385Z" fill="url(#paint40_linear_1268_1427)"/>
<path d="M22.2195 29.9385H15.5945C14.0045 23.1785 19.3907 18.6764 19.7507 13.6364C20.1507 7.90643 16.0107 6.84643 16.0107 6.84643C14.6907 7.17643 17.0207 8.09643 14.4307 8.09643L13.7507 6.64643L13.0632 5.5165C14.7032 5.0665 16.9054 4.68953 19.4226 5.92282C22.522 7.44132 25.1757 11.4109 24.1101 15.4854C23.0476 19.5479 20.532 22.4774 22.2195 29.9385Z" fill="url(#paint41_linear_1268_1427)"/>
<path d="M22.2195 29.9385H15.5945C14.0045 23.1785 19.3907 18.6764 19.7507 13.6364C20.1507 7.90643 16.0107 6.84643 16.0107 6.84643C14.6907 7.17643 17.0207 8.09643 14.4307 8.09643L13.7507 6.64643L13.0632 5.5165C14.7032 5.0665 16.9054 4.68953 19.4226 5.92282C22.522 7.44132 25.1757 11.4109 24.1101 15.4854C23.0476 19.5479 20.532 22.4774 22.2195 29.9385Z" fill="url(#paint42_radial_1268_1427)"/>
<path d="M22.2195 29.9385H15.5945C14.0045 23.1785 19.3907 18.6764 19.7507 13.6364C20.1507 7.90643 16.0107 6.84643 16.0107 6.84643C14.6907 7.17643 17.0207 8.09643 14.4307 8.09643L13.7507 6.64643L13.0632 5.5165C14.7032 5.0665 16.9054 4.68953 19.4226 5.92282C22.522 7.44132 25.1757 11.4109 24.1101 15.4854C23.0476 19.5479 20.532 22.4774 22.2195 29.9385Z" fill="url(#paint43_radial_1268_1427)"/>
<path d="M22.2195 29.9385H15.5945C14.0045 23.1785 19.3907 18.6764 19.7507 13.6364C20.1507 7.90643 16.0107 6.84643 16.0107 6.84643C14.6907 7.17643 17.0207 8.09643 14.4307 8.09643L13.7507 6.64643L13.0632 5.5165C14.7032 5.0665 16.9054 4.68953 19.4226 5.92282C22.522 7.44132 25.1757 11.4109 24.1101 15.4854C23.0476 19.5479 20.532 22.4774 22.2195 29.9385Z" fill="url(#paint44_radial_1268_1427)"/>
<path d="M22.2195 29.9385H15.5945C14.0045 23.1785 19.3907 18.6764 19.7507 13.6364C20.1507 7.90643 16.0107 6.84643 16.0107 6.84643C14.6907 7.17643 17.0207 8.09643 14.4307 8.09643L13.7507 6.64643L13.0632 5.5165C14.7032 5.0665 16.9054 4.68953 19.4226 5.92282C22.522 7.44132 25.1757 11.4109 24.1101 15.4854C23.0476 19.5479 20.532 22.4774 22.2195 29.9385Z" fill="url(#paint45_radial_1268_1427)"/>
<g filter="url(#filter6_f_1268_1427)">
<path d="M17.9465 29.9539H15.8426C15.0113 26.4195 16.003 23.8397 17.2703 21.1401L17.9465 29.9539Z" fill="url(#paint46_radial_1268_1427)" fill-opacity="0.65"/>
<path d="M17.9465 29.9539H15.8426C15.0113 26.4195 16.003 23.8397 17.2703 21.1401L17.9465 29.9539Z" fill="url(#paint47_radial_1268_1427)" fill-opacity="0.3"/>
</g>
<g filter="url(#filter7_f_1268_1427)">
<path d="M11.7687 14.862C11.3667 14.9526 10.9636 14.6978 10.8729 14.2958L10.5618 12.916C10.4711 12.514 10.7259 12.1109 11.128 12.0202C11.53 11.9296 11.9331 12.1844 12.0238 12.5864L12.3349 13.9661C12.4255 14.3682 12.1708 14.7713 11.7687 14.862Z" fill="url(#paint48_linear_1268_1427)"/>
</g>
<path d="M11.8695 14.8974C11.4573 14.8974 11.1201 14.5602 11.1201 14.1481V12.7337C11.1201 12.3216 11.4573 11.9844 11.8695 11.9844C12.2816 11.9844 12.6188 12.3216 12.6188 12.7337V14.1481C12.6188 14.5602 12.2816 14.8974 11.8695 14.8974Z" fill="url(#paint49_linear_1268_1427)"/>
<path d="M11.8695 14.8974C11.4573 14.8974 11.1201 14.5602 11.1201 14.1481V12.7337C11.1201 12.3216 11.4573 11.9844 11.8695 11.9844C12.2816 11.9844 12.6188 12.3216 12.6188 12.7337V14.1481C12.6188 14.5602 12.2816 14.8974 11.8695 14.8974Z" fill="url(#paint50_linear_1268_1427)"/>
<path d="M11.8695 14.8974C11.4573 14.8974 11.1201 14.5602 11.1201 14.1481V12.7337C11.1201 12.3216 11.4573 11.9844 11.8695 11.9844C12.2816 11.9844 12.6188 12.3216 12.6188 12.7337V14.1481C12.6188 14.5602 12.2816 14.8974 11.8695 14.8974Z" fill="url(#paint51_linear_1268_1427)"/>
<path d="M11.8695 14.8974C11.4573 14.8974 11.1201 14.5602 11.1201 14.1481V12.7337C11.1201 12.3216 11.4573 11.9844 11.8695 11.9844C12.2816 11.9844 12.6188 12.3216 12.6188 12.7337V14.1481C12.6188 14.5602 12.2816 14.8974 11.8695 14.8974Z" fill="url(#paint52_radial_1268_1427)"/>
<path d="M4.69815 20.245C4.43717 20.506 4.00219 20.506 3.74121 20.245L4.69815 19.2881C4.95913 19.5578 4.95913 19.984 4.69815 20.245Z" fill="url(#paint53_linear_1268_1427)"/>
<path d="M8.10921 22.7329L6.26172 23.1427C7.03638 22.8415 7.50572 22.0205 7.35914 21.1675C7.31127 20.8889 7.49831 20.6242 7.77692 20.5763C8.05552 20.5285 8.32018 20.7155 8.36806 20.9941C8.47384 21.6097 8.37031 22.2138 8.10921 22.7329Z" fill="url(#paint54_linear_1268_1427)"/>
<g filter="url(#filter8_f_1268_1427)">
<path d="M25.5475 13.3662C25.7559 13.887 25.96 15.7162 25.11 18.8662C24.0475 22.8037 23.86 24.7412 24.485 27.7412" stroke="url(#paint55_linear_1268_1427)" stroke-width="0.5" stroke-linecap="round"/>
</g>
<g filter="url(#filter9_f_1268_1427)">
<path d="M21.9063 9.56885C22.5626 10.2876 24.0791 13.3412 21.3927 18.8666C19.6094 22.5344 19.3601 24.9291 19.7976 29.1166" stroke="url(#paint56_linear_1268_1427)" stroke-width="0.5" stroke-linecap="round"/>
</g>
<path d="M13.7516 8.54435C12.8665 7.33326 12.5018 5.61082 12.3744 4.55666C12.3325 4.20956 12.6976 3.99606 12.9922 4.18441C14.7715 5.32215 15.6483 6.20613 16.2501 6.95356C16.6978 7.50953 16.3949 8.36461 15.7075 8.55704L14.7043 8.83789C14.3521 8.93646 13.9673 8.83957 13.7516 8.54435Z" fill="url(#paint57_radial_1268_1427)"/>
<path d="M13.7516 8.54435C12.8665 7.33326 12.5018 5.61082 12.3744 4.55666C12.3325 4.20956 12.6976 3.99606 12.9922 4.18441C14.7715 5.32215 15.6483 6.20613 16.2501 6.95356C16.6978 7.50953 16.3949 8.36461 15.7075 8.55704L14.7043 8.83789C14.3521 8.93646 13.9673 8.83957 13.7516 8.54435Z" fill="url(#paint58_radial_1268_1427)"/>
<g filter="url(#filter10_f_1268_1427)">
<path d="M13.6913 8.82874C14.5554 8.98841 15.814 8.66907 16.4669 7.91234" stroke="url(#paint59_linear_1268_1427)" stroke-width="0.5" stroke-linecap="round"/>
</g>
<g filter="url(#filter11_f_1268_1427)">
<path d="M19.875 8.9126C20.3542 9.52718 21.3438 12.0688 20.2812 15.5688" stroke="url(#paint60_linear_1268_1427)" stroke-opacity="0.3" stroke-width="0.25" stroke-linecap="round"/>
</g>
</g>
<defs>
<filter id="filter0_f_1268_1427" x="4.63828" y="1.78574" width="7.71807" height="6.34697" filterUnits="userSpaceOnUse" color-interpolation-filters="sRGB">
<feFlood flood-opacity="0" result="BackgroundImageFix"/>
<feBlend mode="normal" in="SourceGraphic" in2="BackgroundImageFix" result="shape"/>
<feGaussianBlur stdDeviation="0.3" result="effect1_foregroundBlur_1268_1427"/>
</filter>
<filter id="filter1_f_1268_1427" x="7.88965" y="5.26514" width="5.77246" height="5.81982" filterUnits="userSpaceOnUse" color-interpolation-filters="sRGB">
<feFlood flood-opacity="0" result="BackgroundImageFix"/>
<feBlend mode="normal" in="SourceGraphic" in2="BackgroundImageFix" result="shape"/>
<feGaussianBlur stdDeviation="0.25" result="effect1_foregroundBlur_1268_1427"/>
</filter>
<filter id="filter2_f_1268_1427" x="24.4092" y="13.9036" width="3.44912" height="16.3251" filterUnits="userSpaceOnUse" color-interpolation-filters="sRGB">
<feFlood flood-opacity="0" result="BackgroundImageFix"/>
<feBlend mode="normal" in="SourceGraphic" in2="BackgroundImageFix" result="shape"/>
<feGaussianBlur stdDeviation="0.4" result="effect1_foregroundBlur_1268_1427"/>
</filter>
<filter id="filter3_f_1268_1427" x="20.5308" y="10.3006" width="4.76162" height="20.3656" filterUnits="userSpaceOnUse" color-interpolation-filters="sRGB">
<feFlood flood-opacity="0" result="BackgroundImageFix"/>
<feBlend mode="normal" in="SourceGraphic" in2="BackgroundImageFix" result="shape"/>
<feGaussianBlur stdDeviation="0.4" result="effect1_foregroundBlur_1268_1427"/>
</filter>
<filter id="filter4_f_1268_1427" x="1.09888" y="5.14746" width="23.3792" height="19.23" filterUnits="userSpaceOnUse" color-interpolation-filters="sRGB">
<feFlood flood-opacity="0" result="BackgroundImageFix"/>
<feBlend mode="normal" in="SourceGraphic" in2="BackgroundImageFix" result="shape"/>
<feGaussianBlur stdDeviation="0.5" result="effect1_foregroundBlur_1268_1427"/>
</filter>
<filter id="filter5_f_1268_1427" x="2.43408" y="6.1001" width="17.7786" height="17.8105" filterUnits="userSpaceOnUse" color-interpolation-filters="sRGB">
<feFlood flood-opacity="0" result="BackgroundImageFix"/>
<feBlend mode="normal" in="SourceGraphic" in2="BackgroundImageFix" result="shape"/>
<feGaussianBlur stdDeviation="1" result="effect1_foregroundBlur_1268_1427"/>
</filter>
<filter id="filter6_f_1268_1427" x="15.0366" y="20.6401" width="3.40991" height="9.81396" filterUnits="userSpaceOnUse" color-interpolation-filters="sRGB">
<feFlood flood-opacity="0" result="BackgroundImageFix"/>
<feBlend mode="normal" in="SourceGraphic" in2="BackgroundImageFix" result="shape"/>
<feGaussianBlur stdDeviation="0.25" result="effect1_foregroundBlur_1268_1427"/>
</filter>
<filter id="filter7_f_1268_1427" x="9.79346" y="11.252" width="3.30981" height="4.37842" filterUnits="userSpaceOnUse" color-interpolation-filters="sRGB">
<feFlood flood-opacity="0" result="BackgroundImageFix"/>
<feBlend mode="normal" in="SourceGraphic" in2="BackgroundImageFix" result="shape"/>
<feGaussianBlur stdDeviation="0.375" result="effect1_foregroundBlur_1268_1427"/>
</filter>
<filter id="filter8_f_1268_1427" x="22.3779" y="11.6162" width="5.10278" height="17.875" filterUnits="userSpaceOnUse" color-interpolation-filters="sRGB">
<feFlood flood-opacity="0" result="BackgroundImageFix"/>
<feBlend mode="normal" in="SourceGraphic" in2="BackgroundImageFix" result="shape"/>
<feGaussianBlur stdDeviation="0.75" result="effect1_foregroundBlur_1268_1427"/>
</filter>
<filter id="filter9_f_1268_1427" x="17.8601" y="7.81885" width="6.81909" height="23.0479" filterUnits="userSpaceOnUse" color-interpolation-filters="sRGB">
<feFlood flood-opacity="0" result="BackgroundImageFix"/>
<feBlend mode="normal" in="SourceGraphic" in2="BackgroundImageFix" result="shape"/>
<feGaussianBlur stdDeviation="0.75" result="effect1_foregroundBlur_1268_1427"/>
</filter>
<filter id="filter10_f_1268_1427" x="12.9412" y="7.16211" width="4.27588" height="2.45654" filterUnits="userSpaceOnUse" color-interpolation-filters="sRGB">
<feFlood flood-opacity="0" result="BackgroundImageFix"/>
<feBlend mode="normal" in="SourceGraphic" in2="BackgroundImageFix" result="shape"/>
<feGaussianBlur stdDeviation="0.25" result="effect1_foregroundBlur_1268_1427"/>
</filter>
<filter id="filter11_f_1268_1427" x="19.25" y="8.2876" width="2.12988" height="7.90625" filterUnits="userSpaceOnUse" color-interpolation-filters="sRGB">
<feFlood flood-opacity="0" result="BackgroundImageFix"/>
<feBlend mode="normal" in="SourceGraphic" in2="BackgroundImageFix" result="shape"/>
<feGaussianBlur stdDeviation="0.25" result="effect1_foregroundBlur_1268_1427"/>
</filter>
<linearGradient id="paint0_linear_1268_1427" x1="3.88555" y1="0.870606" x2="12.1134" y2="9.20053" gradientUnits="userSpaceOnUse">
<stop offset="0.117197" stop-color="#FFE669"/>
<stop offset="0.322917" stop-color="#9DE0A1"/>
<stop offset="0.510417" stop-color="#5AAAFF"/>
<stop offset="0.885417" stop-color="#6547C6"/>
</linearGradient>
<linearGradient id="paint1_linear_1268_1427" x1="8.6194" y1="8.61819" x2="10.1786" y2="7.28445" gradientUnits="userSpaceOnUse">
<stop stop-color="#58429D"/>
<stop offset="0.635918" stop-color="#58429D" stop-opacity="0"/>
</linearGradient>
<radialGradient id="paint2_radial_1268_1427" cx="0" cy="0" r="1" gradientUnits="userSpaceOnUse" gradientTransform="translate(11.1554 8.52426) rotate(-133.542) scale(3.65403 1.86173)">
<stop offset="0.21112" stop-color="#5F41BF"/>
<stop offset="0.785276" stop-color="#5F41BF" stop-opacity="0"/>
</radialGradient>
<linearGradient id="paint3_linear_1268_1427" x1="7.56258" y1="11.4752" x2="15.1876" y2="8.03768" gradientUnits="userSpaceOnUse">
<stop stop-color="#8096F1"/>
<stop offset="1" stop-color="#5570DE"/>
</linearGradient>
<linearGradient id="paint4_linear_1268_1427" x1="9.90633" y1="13.3189" x2="10.6354" y2="9.64577" gradientUnits="userSpaceOnUse">
<stop offset="0.199419" stop-color="#9672E0"/>
<stop offset="0.596305" stop-color="#9672E0" stop-opacity="0"/>
</linearGradient>
<radialGradient id="paint5_radial_1268_1427" cx="0" cy="0" r="1" gradientUnits="userSpaceOnUse" gradientTransform="translate(13.2039 9.06977) rotate(-163.217) scale(2.05634 1.94436)">
<stop stop-color="#4360D1"/>
<stop offset="1" stop-color="#4360D1" stop-opacity="0"/>
</radialGradient>
<radialGradient id="paint6_radial_1268_1427" cx="0" cy="0" r="1" gradientUnits="userSpaceOnUse" gradientTransform="translate(6.0782 9.3033) rotate(32.6609) scale(1.44765 0.789599)">
<stop stop-color="#AEC7FF"/>
<stop offset="1" stop-color="#AEC7FF" stop-opacity="0"/>
</radialGradient>
<radialGradient id="paint7_radial_1268_1427" cx="0" cy="0" r="1" gradientUnits="userSpaceOnUse" gradientTransform="translate(12.6407 5.08936) rotate(153.627) scale(3.36595 1.89329)">
<stop stop-color="#AEC7FF"/>
<stop offset="0.626123" stop-color="#AEC7FF" stop-opacity="0"/>
</radialGradient>
<linearGradient id="paint8_linear_1268_1427" x1="7.01622" y1="11.7101" x2="13.1621" y2="6.42888" gradientUnits="userSpaceOnUse">
<stop stop-color="#92AAF1"/>
<stop offset="1" stop-color="#92AAF1" stop-opacity="0"/>
</linearGradient>
<radialGradient id="paint9_radial_1268_1427" cx="0" cy="0" r="1" gradientUnits="userSpaceOnUse" gradientTransform="translate(9.74992 25.0997) rotate(34.4144) scale(8.56091 11.4861)">
<stop stop-color="#DFC1FF"/>
<stop offset="0.553633" stop-color="#B683E8"/>
</radialGradient>
<radialGradient id="paint10_radial_1268_1427" cx="0" cy="0" r="1" gradientUnits="userSpaceOnUse" gradientTransform="translate(19.2975 27.4912) rotate(-172.053) scale(6.67416 9.51959)">
<stop offset="0.17078" stop-color="#9E67D9"/>
<stop offset="0.852457" stop-color="#9E67D9" stop-opacity="0"/>
</radialGradient>
<linearGradient id="paint11_linear_1268_1427" x1="18.6249" y1="16.4747" x2="13.0624" y2="25.9122" gradientUnits="userSpaceOnUse">
<stop offset="0.17078" stop-color="#9473B8"/>
<stop offset="0.852457" stop-color="#926FB7" stop-opacity="0"/>
</linearGradient>
<radialGradient id="paint12_radial_1268_1427" cx="0" cy="0" r="1" gradientUnits="userSpaceOnUse" gradientTransform="translate(19.7536 28.4912) rotate(-162.902) scale(10.4165 32.6637)">
<stop offset="0.774132" stop-color="#EBD6FF" stop-opacity="0"/>
<stop offset="1" stop-color="#EBD6FF"/>
</radialGradient>
<linearGradient id="paint13_linear_1268_1427" x1="16.2499" y1="32.7247" x2="16.6465" y2="29.3336" gradientUnits="userSpaceOnUse">
<stop stop-color="#C452CE"/>
<stop offset="1" stop-color="#C452CE" stop-opacity="0"/>
</linearGradient>
<linearGradient id="paint14_linear_1268_1427" x1="25.3124" y1="10.8497" x2="34.3269" y2="23.2021" gradientUnits="userSpaceOnUse">
<stop stop-color="#7FA3FA"/>
<stop offset="1" stop-color="#FF6EFF"/>
</linearGradient>
<linearGradient id="paint15_linear_1268_1427" x1="24.9999" y1="29.0997" x2="28.5591" y2="27.6965" gradientUnits="userSpaceOnUse">
<stop offset="0.246377" stop-color="#E652E2"/>
<stop offset="1" stop-color="#E552E2" stop-opacity="0"/>
</linearGradient>
<radialGradient id="paint16_radial_1268_1427" cx="0" cy="0" r="1" gradientUnits="userSpaceOnUse" gradientTransform="translate(28.5624 18.0372) rotate(90) scale(9.25 2.5625)">
<stop stop-color="#E5BFFF"/>
<stop offset="0.500159" stop-color="#E5BFFF" stop-opacity="0"/>
</radialGradient>
<linearGradient id="paint17_linear_1268_1427" x1="24.1171" y1="9.41257" x2="31.6105" y2="20.8303" gradientUnits="userSpaceOnUse">
<stop stop-color="#7FA3FA"/>
<stop offset="1" stop-color="#FF6EFF"/>
</linearGradient>
<linearGradient id="paint18_linear_1268_1427" x1="20.1508" y1="28.5147" x2="24.537" y2="28.0601" gradientUnits="userSpaceOnUse">
<stop offset="0.246377" stop-color="#E652E2"/>
<stop offset="1" stop-color="#E552E2" stop-opacity="0"/>
</linearGradient>
<radialGradient id="paint19_radial_1268_1427" cx="0" cy="0" r="1" gradientUnits="userSpaceOnUse" gradientTransform="translate(25.375 7.66257) rotate(69.444) scale(3.738 3.11775)">
<stop stop-color="#9BCFFF"/>
<stop offset="1" stop-color="#9BCFFF" stop-opacity="0"/>
</radialGradient>
<radialGradient id="paint20_radial_1268_1427" cx="0" cy="0" r="1" gradientUnits="userSpaceOnUse" gradientTransform="translate(19.25 15.5376) rotate(-56.2679) scale(7.76592 4.16124)">
<stop offset="0.77114" stop-color="#8BA1F9"/>
<stop offset="1" stop-color="#8BA1F9" stop-opacity="0"/>
</radialGradient>
<radialGradient id="paint21_radial_1268_1427" cx="0" cy="0" r="1" gradientUnits="userSpaceOnUse" gradientTransform="translate(25.0402 28.3047) rotate(87.8264) scale(5.93703 1.29971)">
<stop stop-color="#FF95FF"/>
<stop offset="1" stop-color="#FF95FF" stop-opacity="0"/>
</radialGradient>
<linearGradient id="paint22_linear_1268_1427" x1="8.51631" y1="17.2144" x2="5.34806" y2="12.7723" gradientUnits="userSpaceOnUse">
<stop stop-color="#D0BDF3"/>
<stop offset="1" stop-color="#D0ABFD"/>
</linearGradient>
<linearGradient id="paint23_linear_1268_1427" x1="11.9631" y1="23.2559" x2="11.4538" y2="18.2144" gradientUnits="userSpaceOnUse">
<stop offset="0.156941" stop-color="#F580FF"/>
<stop offset="0.546408" stop-color="#CA80FF" stop-opacity="0"/>
</linearGradient>
<radialGradient id="paint24_radial_1268_1427" cx="0" cy="0" r="1" gradientUnits="userSpaceOnUse" gradientTransform="translate(15.1566 9.88088) rotate(128.004) scale(20.5023 16.008)">
<stop offset="0.723631" stop-color="#CA80FF" stop-opacity="0"/>
<stop offset="0.907924" stop-color="#CA80FF"/>
</radialGradient>
<radialGradient id="paint25_radial_1268_1427" cx="0" cy="0" r="1" gradientUnits="userSpaceOnUse" gradientTransform="translate(15.7038 24.6519) rotate(-80.8698) scale(7.08983 12.2981)">
<stop stop-color="#F580FF"/>
<stop offset="1" stop-color="#CA80FF" stop-opacity="0"/>
</radialGradient>
<radialGradient id="paint26_radial_1268_1427" cx="0" cy="0" r="1" gradientUnits="userSpaceOnUse" gradientTransform="translate(-1.42119 10.2144) rotate(23.0464) scale(23.0591 20.6394)">
<stop offset="0.70061" stop-color="#9E7ACB" stop-opacity="0"/>
<stop offset="1" stop-color="#9E7ACB"/>
</radialGradient>
<radialGradient id="paint27_radial_1268_1427" cx="0" cy="0" r="1" gradientUnits="userSpaceOnUse" gradientTransform="translate(1.33075 22.8802) rotate(-16.5258) scale(7.13241 3.41026)">
<stop stop-color="#A974FF"/>
<stop offset="1" stop-color="#A974FF" stop-opacity="0"/>
</radialGradient>
<linearGradient id="paint28_linear_1268_1427" x1="8.12499" y1="12.3187" x2="8.87187" y2="13.0189" gradientUnits="userSpaceOnUse">
<stop stop-color="#F9E1FF"/>
<stop offset="1" stop-color="#F6D5FF" stop-opacity="0"/>
</linearGradient>
<radialGradient id="paint29_radial_1268_1427" cx="0" cy="0" r="1" gradientUnits="userSpaceOnUse" gradientTransform="translate(3.48506 10.4912) rotate(32.8969) scale(21.2887 19.0547)">
<stop offset="0.660717" stop-color="#957ADD" stop-opacity="0"/>
<stop offset="0.842391" stop-color="#957ADD"/>
</radialGradient>
<linearGradient id="paint30_linear_1268_1427" x1="4.14136" y1="21.6166" x2="20.5659" y2="0.564984" gradientUnits="userSpaceOnUse">
<stop stop-color="#F6D5FF"/>
<stop offset="1" stop-color="#F6D5FF" stop-opacity="0"/>
</linearGradient>
<linearGradient id="paint31_linear_1268_1427" x1="24.3497" y1="6.18054" x2="23.4606" y2="29.2366" gradientUnits="userSpaceOnUse">
<stop stop-color="#504340"/>
<stop offset="1" stop-color="#504449"/>
</linearGradient>
<linearGradient id="paint32_linear_1268_1427" x1="14.9851" y1="24.4773" x2="22.4851" y2="24.4773" gradientUnits="userSpaceOnUse">
<stop offset="0.246377" stop-color="#3C253D"/>
<stop offset="1" stop-color="#623769" stop-opacity="0"/>
</linearGradient>
<radialGradient id="paint33_radial_1268_1427" cx="0" cy="0" r="1" gradientUnits="userSpaceOnUse" gradientTransform="translate(17.0364 7.03741) rotate(33.88) scale(7.26094 8.03806)">
<stop stop-color="#443835"/>
<stop offset="1" stop-color="#4F413E" stop-opacity="0"/>
</radialGradient>
<radialGradient id="paint34_radial_1268_1427" cx="0" cy="0" r="1" gradientUnits="userSpaceOnUse" gradientTransform="translate(24.3498 23.2125) rotate(-83.523) scale(13.366 8.48)">
<stop offset="0.441432" stop-color="#3B282D"/>
<stop offset="0.841107" stop-color="#3B282D" stop-opacity="0"/>
</radialGradient>
<radialGradient id="paint35_radial_1268_1427" cx="0" cy="0" r="1" gradientUnits="userSpaceOnUse" gradientTransform="translate(24.3498 23.2125) rotate(-80.3949) scale(8.2332 4.70827)">
<stop offset="0.441432" stop-color="#3B282D"/>
<stop offset="0.841107" stop-color="#3B282D" stop-opacity="0"/>
</radialGradient>
<radialGradient id="paint36_radial_1268_1427" cx="0" cy="0" r="1" gradientUnits="userSpaceOnUse" gradientTransform="translate(10.6101 15.804) rotate(-7.75316) scale(13.4353 11.7574)">
<stop offset="0.612913" stop-color="#3B282D"/>
<stop offset="0.84319" stop-color="#3B282D" stop-opacity="0"/>
</radialGradient>
<radialGradient id="paint37_radial_1268_1427" cx="0" cy="0" r="1" gradientUnits="userSpaceOnUse" gradientTransform="translate(13.9226 12.6165) rotate(-46.5482) scale(8.9968 7.12028)">
<stop offset="0.663835" stop-color="#3B282D"/>
<stop offset="0.880027" stop-color="#3B282D" stop-opacity="0"/>
</radialGradient>
<radialGradient id="paint38_radial_1268_1427" cx="0" cy="0" r="1" gradientUnits="userSpaceOnUse" gradientTransform="translate(17.4581 10.8493) rotate(62.8528) scale(4.37406 2.70071)">
<stop stop-color="#827876"/>
<stop offset="1" stop-color="#C2BCBB" stop-opacity="0"/>
</radialGradient>
<radialGradient id="paint39_radial_1268_1427" cx="0" cy="0" r="1" gradientUnits="userSpaceOnUse" gradientTransform="translate(17.9465 12.9532) rotate(93.0394) scale(4.25142 2.62498)">
<stop stop-color="#827876"/>
<stop offset="1" stop-color="#C2BCBB" stop-opacity="0"/>
</radialGradient>
<linearGradient id="paint40_linear_1268_1427" x1="16.5" y1="9.85002" x2="23.8447" y2="22.9458" gradientUnits="userSpaceOnUse">
<stop stop-color="#53A3FB"/>
<stop offset="1" stop-color="#FF6EFF"/>
</linearGradient>
<linearGradient id="paint41_linear_1268_1427" x1="11" y1="28.225" x2="21.25" y2="25.9125" gradientUnits="userSpaceOnUse">
<stop offset="0.246377" stop-color="#E652E2"/>
<stop offset="1" stop-color="#E552E2" stop-opacity="0"/>
</linearGradient>
<radialGradient id="paint42_radial_1268_1427" cx="0" cy="0" r="1" gradientUnits="userSpaceOnUse" gradientTransform="translate(18 4.72502) rotate(25.292) scale(6.29049 2.03929)">
<stop stop-color="#78BEFF"/>
<stop offset="1" stop-color="#78BEFF" stop-opacity="0"/>
</radialGradient>
<radialGradient id="paint43_radial_1268_1427" cx="0" cy="0" r="1" gradientUnits="userSpaceOnUse" gradientTransform="translate(13.9226 12.6165) rotate(-46.5482) scale(8.9968 7.12028)">
<stop offset="0.663835" stop-color="#5981F2"/>
<stop offset="0.880027" stop-color="#5981F2" stop-opacity="0"/>
</radialGradient>
<radialGradient id="paint44_radial_1268_1427" cx="0" cy="0" r="1" gradientUnits="userSpaceOnUse" gradientTransform="translate(16.5938 9.50627) rotate(42.0793) scale(4.33666 2.94746)">
<stop offset="0.487849" stop-color="#5F71E6"/>
<stop offset="1" stop-color="#5F71E6" stop-opacity="0"/>
</radialGradient>
<radialGradient id="paint45_radial_1268_1427" cx="0" cy="0" r="1" gradientUnits="userSpaceOnUse" gradientTransform="translate(20.5 27.975) rotate(86.4552) scale(7.07604 2.52227)">
<stop stop-color="#FF95FF"/>
<stop offset="1" stop-color="#FF95FF" stop-opacity="0"/>
</radialGradient>
<radialGradient id="paint46_radial_1268_1427" cx="0" cy="0" r="1" gradientUnits="userSpaceOnUse" gradientTransform="translate(16.5189 19.1677) rotate(98.5999) scale(12.3112 1.37805)">
<stop stop-color="white"/>
<stop offset="1" stop-color="white" stop-opacity="0"/>
</radialGradient>
<radialGradient id="paint47_radial_1268_1427" cx="0" cy="0" r="1" gradientUnits="userSpaceOnUse" gradientTransform="translate(16.1432 18.2284) rotate(87.3719) scale(13.0506 1.46081)">
<stop stop-color="white"/>
<stop offset="0.989076" stop-color="white" stop-opacity="0"/>
</radialGradient>
<linearGradient id="paint48_linear_1268_1427" x1="11.8602" y1="14.7882" x2="11.2039" y2="12.1632" gradientUnits="userSpaceOnUse">
<stop stop-color="#A781D8"/>
<stop offset="1" stop-color="#C9AAF2" stop-opacity="0"/>
</linearGradient>
<linearGradient id="paint49_linear_1268_1427" x1="12.6188" y1="13.4409" x2="11.7513" y2="13.4409" gradientUnits="userSpaceOnUse">
<stop offset="0.225" stop-color="#594C4F"/>
<stop offset="1" stop-color="#392833"/>
</linearGradient>
<linearGradient id="paint50_linear_1268_1427" x1="12.853" y1="14.9398" x2="12.853" y2="13.5714" gradientUnits="userSpaceOnUse">
<stop stop-color="#552D52"/>
<stop offset="1" stop-color="#552D52" stop-opacity="0"/>
</linearGradient>
<linearGradient id="paint51_linear_1268_1427" x1="10.6243" y1="14.1275" x2="11.657" y2="14.1275" gradientUnits="userSpaceOnUse">
<stop stop-color="#594C4F"/>
<stop offset="1" stop-color="#594C4F" stop-opacity="0"/>
</linearGradient>
<radialGradient id="paint52_radial_1268_1427" cx="0" cy="0" r="1" gradientUnits="userSpaceOnUse" gradientTransform="translate(12.1611 13.6153) rotate(-110.004) scale(1.68992 1.67933)">
<stop offset="0.813951" stop-color="#594C4F" stop-opacity="0"/>
<stop offset="1" stop-color="#594C4F"/>
</radialGradient>
<linearGradient id="paint53_linear_1268_1427" x1="3.83659" y1="20.085" x2="4.78972" y2="19.999" gradientUnits="userSpaceOnUse">
<stop stop-color="#382A32"/>
<stop offset="1" stop-color="#2A1927"/>
</linearGradient>
<linearGradient id="paint54_linear_1268_1427" x1="8.03125" y1="22.2091" x2="7.98437" y2="19.881" gradientUnits="userSpaceOnUse">
<stop stop-color="#5B3169"/>
<stop offset="1" stop-color="#5A4056"/>
</linearGradient>
<linearGradient id="paint55_linear_1268_1427" x1="25.547" y1="15.3317" x2="25.547" y2="44.7807" gradientUnits="userSpaceOnUse">
<stop stop-color="#CDDDFF"/>
<stop offset="1" stop-color="white" stop-opacity="0"/>
</linearGradient>
<linearGradient id="paint56_linear_1268_1427" x1="22.549" y1="12.2416" x2="22.549" y2="52.2876" gradientUnits="userSpaceOnUse">
<stop stop-color="#CDDDFF"/>
<stop offset="1" stop-color="white" stop-opacity="0"/>
</linearGradient>
<radialGradient id="paint57_radial_1268_1427" cx="0" cy="0" r="1" gradientUnits="userSpaceOnUse" gradientTransform="translate(15.1004 7.5701) rotate(77.3262) scale(4.02414 2.29324)">
<stop stop-color="#C6AFF4"/>
<stop offset="0.73986" stop-color="#BC9AFE"/>
<stop offset="1" stop-color="#B087FF"/>
</radialGradient>
<radialGradient id="paint58_radial_1268_1427" cx="0" cy="0" r="1" gradientUnits="userSpaceOnUse" gradientTransform="translate(15.2318 7.00655) rotate(59.9314) scale(2.88692 1.26438)">
<stop stop-color="#D0BBFF"/>
<stop offset="1" stop-color="#C5ABFF" stop-opacity="0"/>
</radialGradient>
<linearGradient id="paint59_linear_1268_1427" x1="16.5447" y1="7.90454" x2="12.7852" y2="8.99956" gradientUnits="userSpaceOnUse">
<stop stop-color="#C2A9FA"/>
<stop offset="1" stop-color="#C8ACEF" stop-opacity="0"/>
</linearGradient>
<linearGradient id="paint60_linear_1268_1427" x1="19.5937" y1="10.0376" x2="20.3149" y2="18.8813" gradientUnits="userSpaceOnUse">
<stop stop-color="#CDDDFF"/>
<stop offset="0.48325" stop-color="white" stop-opacity="0"/>
</linearGradient>
<clipPath id="clip0_1268_1427">
<rect width="32" height="32" fill="white"/>
</clipPath>
</defs>
</svg>
