<svg viewBox="0 0 24 24" xmlns="http://www.w3.org/2000/svg">
<g id="Icon=User">
<path id="Vector" d="M2.25694 19.8752C2.04987 20.2339 2.17282 20.6926 2.53155 20.8997C2.89029 21.1068 3.34897 20.9838 3.55605 20.6251L2.25694 19.8752ZM20.4444 20.6251C20.6515 20.9838 21.1102 21.1068 21.4689 20.8997C21.8277 20.6926 21.9506 20.2339 21.7435 19.8752L20.4444 20.6251ZM17.2498 9C17.2498 11.8995 14.8993 14.25 11.9998 14.25V15.75C15.7278 15.75 18.7498 12.7279 18.7498 9H17.2498ZM11.9998 14.25C9.10035 14.25 6.74984 11.8995 6.74984 9H5.24984C5.24984 12.7279 8.27192 15.75 11.9998 15.75V14.25ZM6.74984 9C6.74984 6.1005 9.10035 3.75 11.9998 3.75V2.25C8.27192 2.25 5.24984 5.27208 5.24984 9H6.74984ZM11.9998 3.75C14.8993 3.75 17.2498 6.1005 17.2498 9H18.7498C18.7498 5.27208 15.7278 2.25 11.9998 2.25V3.75ZM3.55605 20.6251C4.41173 19.1427 5.64258 17.9117 7.12486 17.0558L6.3748 15.7568C4.66447 16.7443 3.24426 18.1647 2.25694 19.8752L3.55605 20.6251ZM7.12486 17.0558C8.60699 16.2 10.288 15.75 11.9998 15.75V14.25C10.025 14.25 8.08526 14.7691 6.3748 15.7568L7.12486 17.0558ZM11.9998 15.75C13.7117 15.75 15.3935 16.2 16.8756 17.0558L17.6257 15.7568C15.9152 14.7691 13.9746 14.25 11.9998 14.25V15.75ZM16.8756 17.0558C18.3579 17.9117 19.5888 19.1427 20.4444 20.6251L21.7435 19.8752C20.7562 18.1647 19.336 16.7443 17.6257 15.7568L16.8756 17.0558Z"/>
</g>
</svg>
